SplineFontDB: 3.0
FontName: OmeBhatkhandeBangla
FullName: Ome Bhatkhande Bangla
FamilyName: Ome Bhatkhande Bangla
Weight: Regular
Copyright: Omenad 2006-2024
Version: 3.00 Sep 7, 2024
ItalicAngle: 0
UnderlinePosition: -292
UnderlineWidth: 150
Ascent: 1638
Descent: 410
InvalidEm: 0
sfntRevision: 0x00010000
LayerCount: 2
Layer: 0 1 "Back" 1
Layer: 1 1 "Fore" 0
XUID: [1021 365 -898263510 12592035]
StyleMap: 0x0000
FSType: 8
OS2Version: 1
OS2_WeightWidthSlopeOnly: 0
OS2_UseTypoMetrics: 0
CreationTime: 1192029071
ModificationTime: 1725742148
PfmFamily: 17
TTFWeight: 400
TTFWidth: 5
LineGap: 0
VLineGap: 0
Panose: 2 0 0 0 0 0 0 0 0 0
OS2TypoAscent: 3650
OS2TypoAOffset: 0
OS2TypoDescent: -3000
OS2TypoDOffset: 0
OS2TypoLinegap: 205
OS2WinAscent: 3650
OS2WinAOffset: 0
OS2WinDescent: 3000
OS2WinDOffset: 0
HheadAscent: 3650
HheadAOffset: 0
HheadDescent: -3000
HheadDOffset: 0
OS2SubXSize: 1434
OS2SubYSize: 1331
OS2SubXOff: 0
OS2SubYOff: 283
OS2SupXSize: 1000
OS2SupYSize: 2250
OS2SupXOff: 0
OS2SupYOff: 2800
OS2StrikeYSize: 102
OS2StrikeYPos: 530
OS2Vendor: 'OMND'
OS2CodePages: 6000019f.dff70000
OS2UnicodeRanges: a00002af.500078fb.00000000.00000000
Lookup: 258 0 0 "'kern' Horizontal Kerning in Latin lookup 0" { "'kern' Horizontal Kerning in Latin lookup 0 subtable"  } ['kern' ('latn' <'dflt' > ) ]
MarkAttachClasses: 1
DEI: 91125
ShortTable: maxp 16
  1
  0
  653
  132
  6
  0
  0
  0
  0
  0
  0
  0
  0
  0
  0
  0
EndShort
LangName: 1055 "" "" "Normal"
LangName: 1053 "" "" "Normal"
LangName: 2058 "" "" "Normal"
LangName: 1034 "" "" "Normal"
LangName: 3082 "" "" "Normal"
LangName: 1060 "" "" "Navadno"
LangName: 1051 "" "" "Norm+AOEA-lne"
LangName: 1049 "" "" "+BB4EMQRLBEcEPQRLBDkA"
LangName: 1046 "" "" "Normal"
LangName: 2070 "" "" "Normal"
LangName: 1045 "" "" "Normalny"
LangName: 1044 "" "" "Normal"
LangName: 1040 "" "" "Normale"
LangName: 1038 "" "" "Norm+AOEA-l"
LangName: 1032 "" "" "+A5oDsQO9A78DvQO5A7oDrAAA"
LangName: 1031 "" "" "Standard"
LangName: 1036 "" "" "Normal"

StartChar: .notdef
Encoding: 65536 -1 0
Width: 1582
Flags: W
LayerCount: 2
Fore
SplineSet
279 0 m 1,0,-1
 279 1280 l 1,1,-1
 1303 1280 l 1,2,-1
 1303 0 l 1,3,-1
 279 0 l 1,0,-1
311 32 m 1,4,-1
 1271 32 l 1,5,-1
 1271 1248 l 1,6,-1
 311 1248 l 1,7,-1
 311 32 l 1,4,-1
EndSplineSet
Validated: 1
EndChar

StartChar: exclam
Encoding: 33 33 4
Width: 0
Flags: W
LayerCount: 2
Fore
SplineSet
8925 -2000 m 1,0,-1
 9097 -2000 l 1,1,2
 8741 -2191 8741 -2191 8265 -2319 c 0,3,4
 7586 -2502 7586 -2502 6664 -2601 c 128,-1,5
 5742 -2700 5742 -2700 4752 -2700 c 0,6,7
 3304 -2700 3304 -2700 2108.5 -2505.5 c 128,-1,8
 913 -2311 913 -2311 396 -2000 c 1,9,-1
 594 -2000 l 1,10,11
 913 -2155 913 -2155 1465 -2255.5 c 128,-1,12
 2017 -2356 2017 -2356 2864 -2405.5 c 128,-1,13
 3711 -2455 3711 -2455 4631 -2455 c 0,14,15
 5632 -2455 5632 -2455 6450 -2413 c 0,16,17
 7095 -2380 7095 -2380 7485.5 -2333 c 128,-1,18
 7876 -2286 7876 -2286 8235.5 -2207 c 128,-1,19
 8595 -2128 8595 -2128 8925 -2000 c 1,0,-1
EndSplineSet
Validated: 1
EndChar

StartChar: numbersign
Encoding: 35 35 6
Width: 7
Flags: W
LayerCount: 2
Fore
SplineSet
4273 -1200 m 1,0,-1
 4351 -1200 l 1,1,2
 4189 -1350 4189 -1350 3973 -1451 c 0,3,4
 3664 -1594 3664 -1594 3245 -1672 c 128,-1,5
 2826 -1750 2826 -1750 2376 -1750 c 0,6,7
 1718 -1750 1718 -1750 1174.5 -1597.5 c 128,-1,8
 631 -1445 631 -1445 396 -1200 c 1,9,-1
 486 -1200 l 1,10,11
 631 -1322 631 -1322 882 -1400.5 c 128,-1,12
 1133 -1479 1133 -1479 1518 -1518 c 128,-1,13
 1903 -1557 1903 -1557 2321 -1557 c 0,14,15
 2776 -1557 2776 -1557 3148 -1524 c 0,16,17
 3441 -1498 3441 -1498 3618.5 -1461.5 c 128,-1,18
 3796 -1425 3796 -1425 3959.5 -1362.5 c 128,-1,19
 4123 -1300 4123 -1300 4273 -1200 c 1,0,-1
EndSplineSet
Validated: 1
EndChar

StartChar: dollar
Encoding: 36 36 7
Width: 7
Flags: W
LayerCount: 2
Fore
SplineSet
5823 -1200 m 1,0,-1
 5933 -1200 l 1,1,2
 5707 -1370 5707 -1370 5403 -1485 c 0,3,4
 4972 -1648 4972 -1648 4385 -1736.5 c 128,-1,5
 3798 -1825 3798 -1825 3168 -1825 c 0,6,7
 2246 -1825 2246 -1825 1485.5 -1651.5 c 128,-1,8
 725 -1478 725 -1478 396 -1200 c 1,9,-1
 522 -1200 l 1,10,11
 725 -1339 725 -1339 1076 -1428.5 c 128,-1,12
 1427 -1518 1427 -1518 1966 -1562 c 128,-1,13
 2505 -1606 2505 -1606 3091 -1606 c 0,14,15
 3728 -1606 3728 -1606 4248 -1569 c 0,16,17
 4659 -1539 4659 -1539 4907.5 -1497 c 128,-1,18
 5156 -1455 5156 -1455 5384.5 -1384.5 c 128,-1,19
 5613 -1314 5613 -1314 5823 -1200 c 1,0,-1
EndSplineSet
Validated: 1
EndChar

StartChar: percent
Encoding: 37 37 8
Width: 7
Flags: W
LayerCount: 2
Fore
SplineSet
7374 -1200 m 1,0,-1
 7515 -1200 l 1,1,2
 7224 -1370 7224 -1370 6834 -1485 c 0,3,4
 6279 -1648 6279 -1648 5524.5 -1736.5 c 128,-1,5
 4770 -1825 4770 -1825 3960 -1825 c 0,6,7
 2775 -1825 2775 -1825 1797 -1651.5 c 128,-1,8
 819 -1478 819 -1478 396 -1200 c 1,9,-1
 558 -1200 l 1,10,11
 819 -1339 819 -1339 1270.5 -1428.5 c 128,-1,12
 1722 -1518 1722 -1518 2415 -1562 c 128,-1,13
 3108 -1606 3108 -1606 3861 -1606 c 0,14,15
 4680 -1606 4680 -1606 5349 -1569 c 0,16,17
 5877 -1539 5877 -1539 6196.5 -1497 c 128,-1,18
 6516 -1455 6516 -1455 6810 -1384.5 c 128,-1,19
 7104 -1314 7104 -1314 7374 -1200 c 1,0,-1
EndSplineSet
Validated: 1
EndChar

StartChar: ampersand
Encoding: 38 38 9
Width: 7
Flags: W
LayerCount: 2
Fore
SplineSet
10475 -1200 m 1,0,-1
 10679 -1200 l 1,1,2
 10259 -1391 10259 -1391 9695 -1519 c 0,3,4
 8894 -1702 8894 -1702 7804 -1801 c 128,-1,5
 6714 -1900 6714 -1900 5544 -1900 c 0,6,7
 3832 -1900 3832 -1900 2419.5 -1705.5 c 128,-1,8
 1007 -1511 1007 -1511 396 -1200 c 1,9,-1
 630 -1200 l 1,10,11
 1007 -1355 1007 -1355 1659 -1455.5 c 128,-1,12
 2311 -1556 2311 -1556 3312 -1605.5 c 128,-1,13
 4313 -1655 4313 -1655 5401 -1655 c 0,14,15
 6584 -1655 6584 -1655 7550 -1613 c 0,16,17
 8313 -1580 8313 -1580 8774.5 -1533 c 128,-1,18
 9236 -1486 9236 -1486 9660.5 -1407 c 128,-1,19
 10085 -1328 10085 -1328 10475 -1200 c 1,0,-1
EndSplineSet
Validated: 1
EndChar

StartChar: quotesingle
Encoding: 39 39 10
Width: 1582
VWidth: 575
Flags: W
LayerCount: 2
Back
SplineSet
1210 1169 m 1,0,-1
 942 1169 l 1,1,2
 942 1139 942 1139 944 1108 c 0,3,4
 946 1086 946 1086 950 1028 c 2,5,-1
 959 889 l 2,6,7
 961 858 961 858 961 839 c 0,8,9
 961 646 961 646 865 507 c 0,10,11
 826 450 826 450 826 402 c 0,12,13
 826 363 826 363 851 336 c 0,14,15
 926 253 926 253 998 204 c 2,16,-1
 1157 95 l 2,17,18
 1210 59 1210 59 1210 -1 c 0,19,20
 1210 -50 1210 -50 1169 -50 c 0,21,22
 1143 -50 1143 -50 1113 -25 c 2,23,-1
 936 122 l 1,24,-1
 763 274 l 2,25,26
 692 336 692 336 601 448 c 0,27,28
 590 461 590 461 555 510 c 0,29,30
 518 556 518 556 456 656 c 0,31,32
 448 673 448 673 443 689 c 2,33,-1
 434 747 l 1,34,35
 434 859 434 859 520 859 c 0,36,37
 548 859 548 859 605 833.5 c 128,-1,38
 662 808 662 808 691 808 c 0,39,40
 715 808 715 808 730 816 c 1,41,42
 773 879 773 879 773 994 c 0,43,44
 773 1061 773 1061 763 1115 c 0,45,46
 761 1144 761 1144 753 1169 c 1,47,-1
 375 1169 l 1,48,-1
 375 1325 l 1,49,-1
 1210 1325 l 1,50,-1
 1210 1169 l 1,0,-1
EndSplineSet
Fore
SplineSet
230 1384 m 1,0,-1
 1030 1384 l 1,1,-1
 1222 1384 l 1,2,-1
 1298 1376 l 1,3,-1
 1322 1344 l 1,4,-1
 1354 1272 l 1,5,-1
 1174 1272 l 1,6,-1
 1174 4 l 1,7,-1
 1158 12 l 2,8,9
 1130 28 1130 28 1118 48 c 2,10,-1
 1114 64 l 1,11,-1
 1110 80 l 1,12,-1
 1106 96 l 1,13,-1
 1082 176 l 2,14,15
 1054 260 1054 260 966 352 c 0,16,17
 830 492 830 492 638 584 c 1,18,-1
 502 632 l 1,19,-1
 474 640 l 1,20,-1
 470 640 l 1,21,-1
 466 640 l 1,22,-1
 462 644 l 1,23,-1
 422 656 l 1,24,-1
 398 688 l 1,25,-1
 382 708 l 1,26,-1
 362 740 l 1,27,-1
 322 808 l 1,28,29
 582 976 582 976 754 1060 c 2,30,-1
 942 1136 l 1,31,-1
 974 1148 l 1,32,-1
 990 1152 l 1,33,-1
 1038 1172 l 2,34,35
 1054 1184 1054 1184 1054 1228 c 2,36,-1
 1054 1232 l 1,37,-1
 1054 1236 l 1,38,-1
 1054 1240 l 1,39,-1
 1050 1248 l 1,40,-1
 1050 1272 l 1,41,-1
 506 1272 l 1,42,-1
 354 1272 l 1,43,-1
 286 1276 l 1,44,-1
 262 1312 l 1,45,-1
 230 1384 l 1,0,-1
542 764 m 1,46,47
 606 752 606 752 698 688 c 0,48,49
 786 636 786 636 874 552 c 256,50,51
 962 468 962 468 1050 352 c 1,52,-1
 1050 1016 l 1,53,54
 854 948 854 948 686 852 c 2,55,-1
 638 828 l 1,56,-1
 582 796 l 1,57,-1
 542 764 l 1,46,47
550 392 m 2,58,-1
 574 396 l 1,59,-1
 602 392 l 2,60,61
 682 376 682 376 690 280 c 0,62,63
 690 188 690 188 598 168 c 2,64,-1
 574 164 l 1,65,-1
 546 168 l 2,66,67
 466 184 466 184 458 280 c 0,68,69
 458 372 458 372 550 392 c 2,58,-1
EndSplineSet
EndChar

StartChar: parenleft
Encoding: 40 40 11
Width: 791
Flags: W
LayerCount: 2
Fore
SplineSet
604 -439 m 1,0,1
 540 -380 540 -380 495 -334 c 128,-1,2
 450 -288 450 -288 415 -245 c 128,-1,3
 380 -202 380 -202 352.5 -159 c 128,-1,4
 325 -116 325 -116 298 -65 c 0,5,6
 149 216 149 216 149 546 c 0,7,8
 149 777 149 777 229 984 c 0,9,10
 257 1060 257 1060 290 1121.5 c 128,-1,11
 323 1183 323 1183 366 1240 c 128,-1,12
 409 1297 409 1297 466.5 1356.5 c 128,-1,13
 524 1416 524 1416 604 1488 c 1,14,-1
 642 1435 l 1,15,16
 587 1369 587 1369 547 1316 c 128,-1,17
 507 1263 507 1263 477.5 1212.5 c 128,-1,18
 448 1162 448 1162 426.5 1110 c 128,-1,19
 405 1058 405 1058 384 994 c 0,20,21
 356 894 356 894 340.5 784.5 c 128,-1,22
 325 675 325 675 325 546 c 0,23,24
 325 286 325 286 388 69 c 0,25,26
 409 -1 409 -1 430.5 -56.5 c 128,-1,27
 452 -112 452 -112 480.5 -165 c 128,-1,28
 509 -218 509 -218 548 -273.5 c 128,-1,29
 587 -329 587 -329 642 -396 c 1,30,-1
 604 -439 l 1,0,1
EndSplineSet
Validated: 1
EndChar

StartChar: parenright
Encoding: 41 41 12
Width: 791
Flags: W
LayerCount: 2
Fore
SplineSet
149 -396 m 1,0,1
 204 -329 204 -329 243 -273.5 c 128,-1,2
 282 -218 282 -218 310.5 -165 c 128,-1,3
 339 -112 339 -112 360.5 -56.5 c 128,-1,4
 382 -1 382 -1 402 69 c 0,5,6
 466 286 466 286 466 546 c 0,7,8
 466 675 466 675 450.5 784.5 c 128,-1,9
 435 894 435 894 405 994 c 0,10,11
 386 1058 386 1058 364.5 1109 c 128,-1,12
 343 1160 343 1160 313.5 1211.5 c 128,-1,13
 284 1263 284 1263 244 1316 c 128,-1,14
 204 1369 204 1369 149 1435 c 1,15,-1
 187 1488 l 1,16,17
 267 1416 267 1416 324.5 1355.5 c 128,-1,18
 382 1295 382 1295 425 1238 c 128,-1,19
 468 1181 468 1181 501 1119.5 c 128,-1,20
 534 1058 534 1058 562 984 c 0,21,22
 642 777 642 777 642 544 c 0,23,24
 642 357 642 357 594 184 c 128,-1,25
 546 11 546 11 452 -138 c 0,26,27
 427 -175 427 -175 403.5 -209 c 128,-1,28
 380 -243 380 -243 349.5 -276.5 c 128,-1,29
 319 -310 319 -310 280 -350 c 128,-1,30
 241 -390 241 -390 187 -439 c 1,31,-1
 149 -396 l 1,0,1
EndSplineSet
Validated: 1
EndChar

StartChar: asterisk
Encoding: 42 42 13
Width: 7
Flags: W
LayerCount: 2
Fore
SplineSet
12026 -1200 m 1,0,-1
 12261 -1200 l 1,1,2
 11776 -1391 11776 -1391 11126 -1519 c 0,3,4
 10201 -1702 10201 -1702 8943.5 -1801 c 128,-1,5
 7686 -1900 7686 -1900 6336 -1900 c 0,6,7
 4361 -1900 4361 -1900 2731 -1705.5 c 128,-1,8
 1101 -1511 1101 -1511 396 -1200 c 1,9,-1
 666 -1200 l 1,10,11
 1101 -1355 1101 -1355 1853.5 -1455.5 c 128,-1,12
 2606 -1556 2606 -1556 3761 -1605.5 c 128,-1,13
 4916 -1655 4916 -1655 6171 -1655 c 0,14,15
 7536 -1655 7536 -1655 8651 -1613 c 0,16,17
 9531 -1580 9531 -1580 10063.5 -1533 c 128,-1,18
 10596 -1486 10596 -1486 11086 -1407 c 128,-1,19
 11576 -1328 11576 -1328 12026 -1200 c 1,0,-1
EndSplineSet
Validated: 1
EndChar

StartChar: plus
Encoding: 43 43 14
Width: 1582
Flags: W
LayerCount: 2
Fore
SplineSet
734 1052 m 1,0,-1
 849 1052 l 1,1,-1
 849 595 l 1,2,-1
 1308 595 l 1,3,-1
 1308 480 l 1,4,-1
 849 480 l 1,5,-1
 849 17 l 1,6,-1
 734 17 l 1,7,-1
 734 480 l 1,8,-1
 275 480 l 1,9,-1
 275 595 l 1,10,-1
 734 595 l 1,11,-1
 734 1052 l 1,0,-1
EndSplineSet
Validated: 1
EndChar

StartChar: comma
Encoding: 44 44 15
Width: 1582
Flags: W
LayerCount: 2
Fore
SplineSet
446 223 m 1,0,1
 424 164 424 164 398.5 108.5 c 128,-1,2
 373 53 373 53 337 -6.5 c 128,-1,3
 301 -66 301 -66 254 -132.5 c 128,-1,4
 207 -199 207 -199 145 -279 c 1,5,-1
 61 -317 l 1,6,-1
 33 -295 l 1,7,8
 121 -147 121 -147 164 -36.5 c 128,-1,9
 207 74 207 74 217 190 c 1,10,11
 258 203 258 203 286.5 211 c 128,-1,12
 315 219 315 219 337.5 226 c 128,-1,13
 360 233 360 233 378.5 239.5 c 128,-1,14
 397 246 397 246 418 252 c 1,15,-1
 446 223 l 1,0,1
EndSplineSet
Validated: 1
EndChar

StartChar: hyphen
Encoding: 45 45 16
AltUni2: 0000ad.ffffffff.0
Width: 1582
Flags: W
LayerCount: 2
Fore
SplineSet
499 440 m 1,0,-1
 489 451 l 1,1,-1
 544 588 l 1,2,-1
 1083 588 l 1,3,-1
 1093 578 l 1,4,-1
 1032 440 l 1,5,-1
 499 440 l 1,0,-1
EndSplineSet
Validated: 1
EndChar

StartChar: zero
Encoding: 48 48 19
Width: 1582
VWidth: 575
Flags: W
LayerCount: 2
Back
SplineSet
1074 455 m 0,0,1
 1014 387 1014 387 964 368 c 0,2,3
 930 356 930 356 850 356 c 0,4,5
 691 356 691 356 562 474 c 0,6,7
 421 603 421 603 421 775 c 0,8,9
 421 882 421 882 492 966 c 0,10,11
 579 1068 579 1068 719 1068 c 0,12,13
 878 1068 878 1068 1011 951 c 0,14,15
 1117 858 1117 858 1151 739 c 0,16,17
 1161 704 1161 704 1161 665 c 0,18,19
 1161 554 1161 554 1074 455 c 0,0,1
938 891 m 1,20,-1
 889 918 l 2,21,22
 864 928 864 928 841 928 c 0,23,24
 795 928 795 928 716 879 c 0,25,26
 599 807 599 807 599 649 c 0,27,28
 599 557 599 557 663 510 c 0,29,30
 690 490 690 490 727 490 c 0,31,32
 868 490 868 490 959 662 c 0,33,34
 993 727 993 727 993 784 c 0,35,36
 993 854 993 854 938 891 c 1,20,-1
EndSplineSet
Fore
SplineSet
748 1200 m 4,0,1
 840 1204 840 1204 936 1180 c 4,2,3
 1052 1144 1052 1144 1148 1056 c 4,4,5
 1300 908 1300 908 1300 688 c 4,6,7
 1300 520 1300 520 1196 388 c 4,8,9
 1140 312 1140 312 1060 264 c 4,10,11
 964 208 964 208 840 188 c 4,12,13
 748 184 748 184 652 208 c 4,14,15
 536 244 536 244 440 332 c 4,16,17
 288 480 288 480 288 700 c 4,18,19
 288 868 288 868 392 1000 c 4,20,21
 448 1076 448 1076 528 1124 c 4,22,23
 624 1180 624 1180 748 1200 c 4,0,1
1100 760 m 4,24,25
 1120 896 1120 896 1008 968 c 4,26,27
 1004 972 1004 972 1004 972 c 5,28,-1
 960 992 l 6,29,30
 900 1016 900 1016 828 996 c 4,31,32
 636 944 636 944 532 764 c 4,33,34
 492 696 492 696 484 624 c 4,35,36
 468 492 468 492 580 420 c 6,37,-1
 628 396 l 6,38,39
 688 372 688 372 760 392 c 4,40,41
 948 444 948 444 1052 624 c 4,42,43
 1092 692 1092 692 1100 760 c 4,24,25
EndSplineSet
EndChar

StartChar: one
Encoding: 49 49 20
Width: 1582
VWidth: 575
Flags: W
LayerCount: 2
Back
SplineSet
1022 42 m 0,0,1
 1034 10 1034 10 1037 -16 c 0,2,3
 1037 -73 1037 -73 966 -73 c 0,4,5
 885 -73 885 -73 831 -26 c 1,6,-1
 772 14 l 2,7,8
 735 39 735 39 735 75 c 0,9,10
 735 110 735 110 778 123 c 2,11,-1
 822 136 l 1,12,-1
 819 141 l 1,13,14
 819 181 819 181 687.5 340.5 c 128,-1,15
 556 500 556 500 556 535 c 1,16,17
 560 552 560 552 647 623 c 0,18,19
 739 699 739 699 759 739 c 1,20,-1
 607 853 l 1,21,22
 538 922 538 922 538 1012 c 0,23,24
 538 1117 538 1117 595 1187 c 0,25,26
 656 1263 656 1263 759 1263 c 0,27,28
 861 1263 861 1263 949 1168 c 0,29,30
 1045 1065 1045 1065 1045 927 c 0,31,32
 1045 862 1045 862 1022 798 c 0,33,34
 1007 756 1007 756 913 659 c 1,35,36
 856 608 856 608 799 557 c 0,37,38
 724 485 724 485 724 439 c 0,39,40
 724 397 724 397 759 360 c 2,41,-1
 908 202 l 2,42,43
 979 126 979 126 1022 42 c 0,0,1
912 1083 m 0,44,45
 884 1133 884 1133 837 1133 c 0,46,47
 804 1133 804 1133 759 1098 c 0,48,49
 689 1044 689 1044 689 965 c 0,50,51
 689 940 689 940 692 931 c 0,52,53
 701 887 701 887 733 841 c 0,54,55
 770 788 770 788 810 788 c 0,56,57
 819 788 819 788 831 798 c 0,58,59
 929 921 929 921 929 1015 c 0,60,61
 929 1052 929 1052 912 1083 c 0,44,45
EndSplineSet
Fore
SplineSet
1034 324 m 5,0,1
 1074 412 1074 412 1078 460 c 4,2,3
 1094 652 1094 652 818 820 c 5,4,-1
 814 820 l 5,5,-1
 698 888 l 5,6,-1
 602 948 l 6,7,8
 442 1064 442 1064 418 1192 c 4,9,10
 406 1268 406 1268 434 1316 c 4,11,12
 470 1380 470 1380 546 1380 c 4,13,14
 606 1380 606 1380 642 1336 c 4,15,16
 674 1300 674 1300 678 1248 c 6,17,-1
 670 1204 l 5,18,-1
 658 1176 l 5,19,-1
 646 1144 l 5,20,-1
 654 1124 l 5,21,-1
 670 1092 l 5,22,-1
 686 1064 l 6,23,24
 742 988 742 988 886 880 c 5,25,-1
 894 876 l 5,26,-1
 898 872 l 6,27,28
 966 820 966 820 1002 788 c 4,29,30
 1142 668 1142 668 1158 536 c 4,31,32
 1162 476 1162 476 1150 408 c 4,33,34
 1106 164 1106 164 898 44 c 6,35,-1
 826 8 l 6,36,37
 770 -12 770 -12 714 -16 c 4,38,39
 598 -24 598 -24 554 56 c 6,40,-1
 546 76 l 5,41,-1
 542 96 l 5,42,-1
 538 124 l 5,43,-1
 542 152 l 6,44,45
 566 304 566 304 738 380 c 4,46,47
 766 392 766 392 794 400 c 4,48,49
 806 400 806 400 818 404 c 6,50,-1
 886 408 l 5,51,-1
 890 408 l 6,52,53
 954 404 954 404 994 372 c 4,54,55
 1014 356 1014 356 1034 324 c 5,0,1
EndSplineSet
EndChar

StartChar: two
Encoding: 50 50 21
Width: 1582
VWidth: 575
Flags: W
LayerCount: 2
Back
SplineSet
1220 -1 m 1,0,1
 1220 -47 1220 -47 1143 -47 c 0,2,3
 1078 -47 1078 -47 1052 -1 c 0,4,5
 1010 72 1010 72 873 290 c 0,6,7
 850 327 850 327 823 373 c 0,8,9
 814 388 814 388 776 459 c 0,10,11
 767 475 767 475 749 489 c 2,12,-1
 717 513 l 1,13,-1
 684 511 l 2,14,15
 586 505 586 505 519 567.5 c 128,-1,16
 452 630 452 630 455 728 c 2,17,-1
 456 764 l 1,18,19
 467 845 467 845 567 845 c 0,20,21
 622 845 622 845 650 806 c 0,22,23
 716 716 716 716 761 716 c 0,24,25
 829 716 829 716 930 926 c 0,26,27
 946 959 946 959 946 1005 c 0,28,29
 946 1092 946 1092 909 1123 c 0,30,31
 884 1144 884 1144 828 1144 c 0,32,33
 771 1144 771 1144 686 1123 c 1,34,-1
 580 1084 l 2,35,36
 542 1070 542 1070 499 1070 c 0,37,38
 472 1070 472 1070 434 1120 c 2,39,-1
 377 1195 l 2,40,41
 362 1215 362 1215 362 1226 c 0,42,43
 362 1265 362 1265 456 1283 c 0,44,45
 564 1304 564 1304 660 1304 c 0,46,47
 784 1304 784 1304 857 1271 c 0,48,49
 936 1236 936 1236 1009 1142 c 0,50,51
 1105 1018 1105 1018 1098 902 c 2,52,-1
 1096 869 l 2,53,54
 1090 767 1090 767 1010 687 c 0,55,56
 986 663 986 663 833 545 c 1,57,58
 871 446 871 446 951 360 c 2,59,-1
 1103 197 l 2,60,61
 1182 112 1182 112 1220 -1 c 1,0,1
EndSplineSet
Fore
SplineSet
324 720 m 5,0,-1
 436 656 l 5,1,-1
 444 648 l 5,2,-1
 524 600 l 6,3,4
 608 560 608 560 716 556 c 6,5,-1
 728 556 l 5,6,-1
 868 564 l 5,7,-1
 900 572 l 6,8,9
 1040 608 1040 608 1048 712 c 6,10,-1
 1048 740 l 5,11,-1
 1044 768 l 5,12,-1
 1036 788 l 6,13,14
 1028 808 1028 808 1020 820 c 4,15,16
 968 908 968 908 788 976 c 5,17,-1
 784 980 l 6,18,19
 788 980 788 980 744 996 c 6,20,-1
 664 1028 l 6,21,22
 576 1072 576 1072 536 1120 c 4,23,24
 500 1164 500 1164 496 1224 c 4,25,26
 484 1328 484 1328 572 1368 c 6,27,-1
 592 1376 l 5,28,-1
 616 1380 l 5,29,-1
 672 1372 l 5,30,31
 760 1332 760 1332 756 1236 c 5,32,-1
 744 1188 l 5,33,-1
 736 1172 l 5,34,-1
 732 1156 l 5,35,-1
 756 1116 l 5,36,-1
 764 1104 l 6,37,38
 808 1060 808 1060 912 992 c 5,39,-1
 912 992 l 5,40,41
 1048 908 1048 908 1092 840 c 4,42,43
 1132 784 1132 784 1128 712 c 4,44,45
 1124 624 1124 624 1068 552 c 4,46,47
 996 456 996 456 860 416 c 4,48,49
 824 408 824 408 792 404 c 5,50,-1
 964 256 l 5,51,-1
 1172 48 l 5,52,-1
 1316 -116 l 5,53,-1
 1348 -192 l 5,54,-1
 1220 -88 l 5,55,-1
 1212 -84 l 5,56,-1
 1156 -36 l 6,57,58
 964 116 964 116 788 232 c 6,59,-1
 548 380 l 5,60,-1
 512 400 l 5,61,-1
 476 420 l 6,62,63
 444 436 444 436 432 452 c 6,64,-1
 404 516 l 5,65,-1
 400 520 l 5,66,-1
 400 524 l 5,67,-1
 392 548 l 5,68,-1
 324 720 l 5,0,-1
EndSplineSet
EndChar

StartChar: three
Encoding: 51 51 22
Width: 1582
VWidth: 575
Flags: W
LayerCount: 2
Back
SplineSet
1221 16 m 1,0,-1
 1228 -15 l 1,1,2
 1228 -73 1228 -73 1166 -73 c 0,3,4
 1113 -73 1113 -73 1042 12 c 0,5,6
 1032 24 1032 24 951 138 c 0,7,8
 843 290 843 290 812 318 c 1,9,-1
 769 315 l 2,10,11
 666 308 666 308 586 372 c 0,12,13
 503 439 503 439 503 541 c 1,14,-1
 507 579 l 2,15,16
 511 618 511 618 561 640 c 0,17,18
 586 651 586 651 608 651 c 0,19,20
 637 651 637 651 661 637 c 1,21,22
 688 627 688 627 707 597 c 1,23,24
 754 541 754 541 800 541 c 0,25,26
 860 541 860 541 899 640 c 1,27,-1
 906 683 l 1,28,29
 906 717 906 717 892 745 c 1,30,31
 883 772 883 772 860 800 c 0,32,33
 850 812 850 812 830 813 c 1,34,-1
 803 808 l 1,35,-1
 762 798 l 1,36,-1
 666 781 l 1,37,38
 628 781 628 781 602 813 c 2,39,-1
 548 879 l 2,40,41
 527 905 527 905 527 923 c 0,42,43
 527 943 527 943 567 949 c 0,44,45
 590 952 590 952 613 951 c 2,46,-1
 647 949 l 2,47,48
 804 940 804 940 861 1075 c 0,49,50
 870 1096 870 1096 870 1120 c 0,51,52
 870 1210 870 1210 748 1210 c 0,53,54
 687 1210 687 1210 632 1186 c 2,55,-1
 556 1153 l 2,56,57
 529 1141 529 1141 472 1129 c 1,58,59
 442 1144 442 1144 393 1211 c 2,60,-1
 354 1264 l 1,61,-1
 369 1287 l 1,62,63
 383 1300 383 1300 419 1316 c 1,64,65
 548 1357 548 1357 637 1357 c 0,66,67
 741 1357 741 1357 830 1297 c 0,68,69
 1014 1173 1014 1173 1014 1023 c 0,70,71
 1014 937 1014 937 947 880 c 1,72,-1
 920 863 l 1,73,-1
 914 853 l 1,74,75
 914 843 914 843 930 827 c 0,76,77
 1048 709 1048 709 1048 580 c 0,78,79
 1048 482 1048 482 961 402 c 1,80,-1
 926 376 l 2,81,82
 911 365 911 365 911 354 c 0,83,84
 911 344 911 344 918 332 c 2,85,-1
 947 297 l 1,86,-1
 1113 136 l 2,87,88
 1209 43 1209 43 1221 16 c 1,0,-1
EndSplineSet
Fore
SplineSet
864 1072 m 5,0,-1
 908 1008 l 6,1,2
 932 964 932 964 932 912 c 4,3,4
 932 856 932 856 904 812 c 4,5,6
 852 716 852 716 736 716 c 4,7,8
 596 716 596 716 552 836 c 4,9,10
 532 880 532 880 536 932 c 4,11,12
 540 1088 540 1088 672 1172 c 4,13,14
 728 1208 728 1208 808 1220 c 4,15,16
 840 1224 840 1224 876 1220 c 4,17,18
 1100 1196 1100 1196 1216 956 c 5,19,-1
 1248 868 l 6,20,21
 1280 760 1280 760 1240 428 c 5,22,-1
 1280 644 l 5,23,24
 1280 528 1280 528 1240 428 c 4,25,26
 1160 228 1160 228 972 172 c 4,27,28
 884 144 884 144 796 164 c 4,29,30
 752 176 752 176 696 208 c 4,31,32
 580 272 580 272 484 444 c 4,33,34
 472 464 472 464 460 484 c 4,35,36
 392 600 392 600 316 796 c 6,37,-1
 272 900 l 6,38,39
 264 920 264 920 188 1108 c 6,40,-1
 240 972 l 5,41,-1
 188 1108 l 5,42,-1
 216 1096 l 6,43,44
 240 1088 240 1088 252 1076 c 4,45,46
 272 1064 272 1064 288 1028 c 6,47,-1
 300 1004 l 5,48,-1
 336 928 l 5,49,-1
 368 856 l 5,50,-1
 436 704 l 6,51,52
 588 396 588 396 784 344 c 5,53,-1
 836 336 l 6,54,55
 888 328 888 328 944 348 c 6,56,-1
 1032 384 l 5,57,58
 1220 504 1220 504 1196 752 c 4,59,60
 1192 792 1192 792 1180 832 c 6,61,-1
 1176 848 l 6,62,63
 1132 1008 1132 1008 1008 1060 c 6,64,-1
 976 1072 l 5,65,-1
 920 1080 l 5,66,-1
 884 1076 l 5,67,-1
 864 1072 l 5,0,-1
EndSplineSet
EndChar

StartChar: four
Encoding: 52 52 23
Width: 1582
VWidth: 575
Flags: W
LayerCount: 2
Back
SplineSet
1140 718 m 1,0,-1
 948 565 l 1,1,-1
 937 549 l 2,2,3
 932 545 932 545 928 537 c 1,4,5
 928 525 928 525 962 505 c 0,6,7
 1034 463 1034 463 1080 384.5 c 128,-1,8
 1126 306 1126 306 1126 224 c 0,9,10
 1126 128 1126 128 1051 56 c 128,-1,11
 976 -16 976 -16 879 -16 c 0,12,13
 807 -16 807 -16 702 48 c 0,14,15
 628 93 628 93 579.5 174 c 128,-1,16
 531 255 531 255 531 339 c 0,17,18
 531 492 531 492 685 588 c 1,19,20
 655 620 655 620 591 668 c 0,21,22
 523 720 523 720 496 747 c 0,23,24
 335 908 335 908 335 1056 c 0,25,26
 335 1176 335 1176 436 1267 c 0,27,28
 450 1279 450 1279 478 1292 c 1,29,-1
 545 1299 l 1,30,31
 576 1295 576 1295 609.5 1264.5 c 128,-1,32
 643 1234 643 1234 646 1204 c 2,33,-1
 649 1174 l 2,34,35
 649 1154 649 1154 644 1146 c 2,36,-1
 586 1103 l 2,37,38
 503 1041 503 1041 503 955 c 0,39,40
 503 789 503 789 761 639 c 1,41,42
 1114 867 1114 867 1114 1040 c 0,43,44
 1114 1093 1114 1093 1077 1154 c 1,45,-1
 1066 1169 l 2,46,47
 1056 1183 1056 1183 1041 1188 c 0,48,49
 999 1203 999 1203 999 1257 c 1,50,-1
 1003 1278 l 2,51,52
 1007 1299 1007 1299 1031 1301 c 1,53,-1
 1052 1296 l 2,54,55
 1066 1291 1066 1291 1080 1278 c 0,56,57
 1248 1128 1248 1128 1248 971 c 0,58,59
 1248 832 1248 832 1140 718 c 1,0,-1
962 325 m 0,60,61
 962 426 962 426 851 480 c 1,62,63
 804 458 804 458 748 401 c 0,64,65
 704 356 704 356 688 300 c 1,66,-1
 683 247 l 1,67,68
 683 132 683 132 780 132 c 1,69,-1
 799 129 l 1,70,71
 861 129 861 129 913 197 c 0,72,73
 962 261 962 261 962 325 c 0,60,61
EndSplineSet
Fore
SplineSet
690 664 m 5,0,1
 494 736 494 736 438 904 c 4,2,3
 418 960 418 960 422 1024 c 6,4,-1
 442 1104 l 6,5,6
 462 1156 462 1156 494 1188 c 4,7,8
 538 1240 538 1240 590 1268 c 4,9,10
 666 1312 666 1312 742 1324 c 6,11,-1
 846 1328 l 5,12,13
 1070 1308 1070 1308 1154 1148 c 4,14,15
 1170 1116 1170 1116 1178 1080 c 6,16,-1
 1186 1040 l 5,17,-1
 1186 1000 l 6,18,19
 1182 952 1182 952 1162 904 c 4,20,21
 1126 820 1126 820 998 736 c 5,22,-1
 998 736 l 5,23,-1
 966 716 l 5,24,25
 1078 668 1078 668 1146 576 c 4,26,27
 1214 488 1214 488 1214 400 c 6,28,-1
 1202 308 l 5,29,30
 1142 116 1142 116 906 68 c 4,31,32
 862 60 862 60 818 60 c 4,33,34
 674 60 674 60 566 124 c 4,35,36
 414 220 414 220 422 376 c 4,37,38
 426 396 426 396 430 416 c 6,39,-1
 446 460 l 6,40,41
 462 504 462 504 494 532 c 4,42,43
 538 580 538 580 646 640 c 5,44,-1
 650 640 l 5,45,46
 674 656 674 656 690 664 c 5,0,1
558 1012 m 4,47,48
 578 880 578 880 758 800 c 5,49,-1
 762 800 l 5,50,-1
 770 796 l 5,51,-1
 798 780 l 5,52,-1
 830 768 l 5,53,-1
 870 764 l 6,54,55
 890 768 890 768 922 792 c 5,56,57
 898 772 898 772 946 812 c 4,58,59
 1066 924 1066 924 1046 1044 c 4,60,61
 1026 1188 1026 1188 890 1244 c 4,62,63
 846 1260 846 1260 798 1260 c 6,64,-1
 790 1260 l 6,65,66
 650 1252 650 1252 582 1136 c 4,67,68
 550 1076 550 1076 558 1012 c 4,47,48
562 332 m 4,69,70
 582 196 582 196 726 144 c 4,71,72
 770 128 770 128 818 128 c 6,73,-1
 878 136 l 6,74,75
 1018 160 1018 160 1066 284 c 4,76,77
 1078 324 1078 324 1074 368 c 6,78,-1
 1074 376 l 6,79,80
 1062 500 1062 500 878 588 c 4,81,82
 866 592 866 592 842 604 c 6,83,-1
 838 604 l 5,84,-1
 830 608 l 5,85,-1
 786 620 l 5,86,-1
 758 612 l 5,87,-1
 754 608 l 5,88,-1
 726 592 l 5,89,-1
 702 576 l 6,90,91
 546 468 546 468 562 332 c 4,69,70
EndSplineSet
EndChar

StartChar: five
Encoding: 53 53 24
Width: 1582
VWidth: 575
Flags: W
LayerCount: 2
Back
SplineSet
1192 -42 m 0,0,1
 1171 -42 1171 -42 1163 -33 c 0,2,3
 1138 -14 1138 -14 1119 63 c 2,4,-1
 1093 167 l 1,5,6
 1073 219 1073 219 1017 354 c 2,7,-1
 922 570 l 1,8,-1
 906 577 l 1,9,-1
 868 565 l 2,10,11
 836 555 836 555 795 555 c 0,12,13
 662 555 662 555 540 628 c 0,14,15
 341 747 341 747 341 934 c 2,16,-1
 341 974 l 2,17,18
 344 983 344 983 348 1004 c 2,19,-1
 356 1059 l 1,20,-1
 360 1096 l 1,21,22
 360 1143 360 1143 335 1210 c 0,23,24
 332 1218 332 1218 313 1255 c 1,25,26
 313 1299 313 1299 336 1300 c 0,27,28
 368 1301 368 1301 408 1279 c 2,29,-1
 481 1239 l 1,30,31
 589 1193 589 1193 589 1127 c 0,32,33
 589 1104 589 1104 582 1083 c 2,34,-1
 561 1021 l 2,35,36
 554 999 554 999 538.5 944 c 128,-1,37
 523 889 523 889 523 836 c 0,38,39
 523 691 523 691 681 697 c 0,40,41
 830 702 830 702 830 823 c 0,42,43
 830 855 830 855 826 867 c 1,44,45
 826 1009 826 1009 965 1026 c 1,46,47
 1034 1006 1034 1006 1079 948 c 128,-1,48
 1124 890 1124 890 1124 818 c 0,49,50
 1124 722 1124 722 1041 648 c 1,51,-1
 1022 638 l 2,52,53
 1010 633 1010 633 1008 624 c 0,54,55
 1008 619 1008 619 1090 465 c 2,56,-1
 1150 352 l 1,57,-1
 1237 213 l 1,58,59
 1270 139 1270 139 1270 77 c 0,60,61
 1270 46 1270 46 1259.5 5.5 c 128,-1,62
 1249 -35 1249 -35 1192 -42 c 0,0,1
EndSplineSet
Fore
SplineSet
1182 128 m 5,0,1
 1054 60 1054 60 894 68 c 4,2,3
 610 80 610 80 454 280 c 4,4,5
 390 360 390 360 366 460 c 6,6,-1
 354 572 l 6,7,8
 354 652 354 652 374 740 c 4,9,10
 450 1044 450 1044 714 1216 c 4,11,12
 874 1320 874 1320 1050 1328 c 5,13,-1
 1050 1296 l 6,14,15
 1054 1084 1054 1084 1162 988 c 5,16,-1
 1226 948 l 6,17,18
 1262 928 1262 928 1310 920 c 5,19,-1
 1310 912 l 5,20,21
 1082 876 1082 876 958 656 c 4,22,23
 918 592 918 592 902 520 c 6,24,-1
 886 424 l 6,25,26
 882 352 882 352 906 304 c 4,27,28
 946 236 946 236 1010 212 c 6,29,-1
 1046 200 l 5,30,-1
 1086 188 l 5,31,-1
 1158 148 l 5,32,-1
 1182 132 l 5,33,-1
 1182 128 l 5,0,1
938 140 m 5,34,35
 814 244 814 244 778 352 c 4,36,37
 746 436 746 436 750 532 c 4,38,39
 766 768 766 768 934 876 c 5,40,-1
 1014 912 l 5,41,-1
 1014 920 l 5,42,43
 894 956 894 956 874 1100 c 4,44,45
 870 1112 870 1112 870 1120 c 6,46,-1
 870 1136 l 5,47,-1
 742 1068 l 5,48,49
 578 960 578 960 506 780 c 4,50,51
 474 696 474 696 466 612 c 4,52,53
 450 420 450 420 558 288 c 4,54,55
 582 256 582 256 630 220 c 4,56,57
 674 180 674 180 742 160 c 4,58,59
 814 132 814 132 938 140 c 5,34,35
EndSplineSet
EndChar

StartChar: six
Encoding: 54 54 25
Width: 1582
VWidth: 575
Flags: W
LayerCount: 2
Back
SplineSet
1138 -1 m 2,0,1
 1148 -18 1148 -18 1148 -35 c 0,2,3
 1148 -88 1148 -88 1083 -95 c 1,4,5
 1040 -95 1040 -95 1005 -50 c 0,6,7
 981 -19 981 -19 946 77 c 0,8,9
 865 304 865 304 837 344 c 1,10,11
 735 344 735 344 685 368 c 0,12,13
 616 401 616 401 522 513 c 0,14,15
 450 599 450 599 450 684 c 0,16,17
 450 791 450 791 558 888 c 1,18,19
 497 957 497 957 471 1001 c 0,20,21
 435 1060 435 1060 435 1114 c 0,22,23
 435 1161 435 1161 464 1204 c 0,24,25
 548 1327 548 1327 733 1319 c 2,26,-1
 777 1317 l 2,27,28
 888 1312 888 1312 922 1292 c 0,29,30
 944 1279 944 1279 962 1233 c 2,31,-1
 980 1186 l 1,32,-1
 992 1143 l 1,33,34
 992 1117 992 1117 968 1105 c 1,35,36
 952 1108 952 1108 883 1133 c 0,37,38
 801 1162 801 1162 755 1162 c 0,39,40
 715 1162 715 1162 686 1148 c 0,41,42
 582 1112 582 1112 582 1011 c 0,43,44
 582 959 582 959 621 922 c 1,45,46
 649 933 649 933 721 951 c 1,47,-1
 821 958 l 2,48,49
 868 961 868 961 885 919 c 1,50,-1
 910 876 l 2,51,52
 926 854 926 854 929 833 c 1,53,-1
 924 813 l 1,54,55
 914 793 914 793 881 795 c 2,56,-1
 815 799 l 2,57,58
 728 804 728 804 657 748 c 0,59,60
 584 689 584 689 584 602 c 0,61,62
 584 569 584 569 597 537 c 0,63,64
 606 515 606 515 644 500 c 0,65,66
 676 487 676 487 705 487 c 0,67,68
 751 487 751 487 787 513 c 1,69,-1
 796 530 l 1,70,-1
 797 575 l 1,71,72
 807 655 807 655 924 655 c 0,73,74
 976 655 976 655 1017 600 c 0,75,76
 1056 549 1056 549 1056 496 c 0,77,78
 1056 433 1056 433 989 392 c 2,79,-1
 955 371 l 2,80,81
 939 361 939 361 939 344 c 1,82,-1
 950 311 l 1,83,-1
 1138 -1 l 2,0,1
EndSplineSet
Fore
SplineSet
584 1060 m 5,0,1
 524 1060 524 1060 484 1084 c 4,2,3
 460 1104 460 1104 448 1124 c 6,4,-1
 432 1164 l 6,5,6
 412 1256 412 1256 496 1304 c 4,7,8
 544 1336 544 1336 604 1316 c 4,9,10
 672 1292 672 1292 692 1220 c 6,11,-1
 696 1188 l 5,12,-1
 700 1156 l 5,13,-1
 724 872 l 5,14,-1
 724 856 l 5,15,-1
 724 852 l 5,16,-1
 728 808 l 5,17,-1
 728 804 l 5,18,-1
 732 800 l 5,19,20
 740 736 740 736 780 724 c 5,21,-1
 816 728 l 5,22,-1
 828 732 l 5,23,-1
 908 788 l 5,24,-1
 992 868 l 5,25,-1
 1016 892 l 6,26,27
 1080 968 1080 968 1092 1024 c 5,28,29
 1172 984 1172 984 1236 880 c 4,30,31
 1312 760 1312 760 1312 608 c 4,32,33
 1312 344 1312 344 1120 204 c 4,34,35
 1084 176 1084 176 1044 160 c 6,36,-1
 964 136 l 5,37,-1
 924 128 l 5,38,-1
 816 132 l 5,39,40
 640 160 640 160 512 348 c 4,41,42
 432 468 432 468 348 724 c 5,43,-1
 344 728 l 5,44,-1
 336 748 l 6,45,46
 312 824 312 824 296 868 c 6,47,-1
 208 1108 l 5,48,-1
 236 1096 l 6,49,50
 260 1088 260 1088 272 1076 c 6,51,-1
 296 1032 l 6,52,53
 296 1036 296 1036 304 1016 c 6,54,-1
 312 996 l 5,55,-1
 376 824 l 5,56,-1
 428 700 l 6,57,58
 552 412 552 412 728 328 c 4,59,60
 800 292 800 292 888 292 c 4,61,62
 1088 292 1088 292 1192 448 c 4,63,64
 1220 488 1220 488 1232 540 c 4,65,66
 1244 584 1244 584 1244 624 c 4,67,68
 1240 692 1240 692 1184 776 c 5,69,-1
 1180 780 l 5,70,-1
 1164 804 l 5,71,-1
 1160 804 l 5,72,73
 1124 760 1124 760 1028 688 c 6,74,-1
 912 608 l 6,75,76
 864 576 864 576 828 572 c 4,77,78
 744 564 744 564 676 676 c 4,79,80
 628 764 628 764 604 928 c 6,81,-1
 592 992 l 5,82,-1
 584 1060 l 5,0,1
EndSplineSet
EndChar

StartChar: seven
Encoding: 55 55 26
Width: 1582
VWidth: 575
Flags: W
LayerCount: 2
Back
SplineSet
1245 808 m 2,0,-1
 1251 738 l 1,1,-1
 1253 701 l 2,2,3
 1262 530 1262 530 1166 402 c 0,4,5
 1063 264 1063 264 896 264 c 0,6,7
 581 264 581 264 415 711 c 0,8,9
 361 857 361 857 328 1047 c 1,10,11
 328 1118 328 1118 365 1122 c 0,12,13
 389 1122 389 1122 406 1097 c 128,-1,14
 423 1072 423 1072 423 1047 c 0,15,16
 423 984 423 984 458 865 c 0,17,18
 563 508 563 508 779 453 c 1,19,-1
 844 444 l 1,20,21
 930 444 930 444 1000 493 c 0,22,23
 1075 545 1075 545 1091 626 c 0,24,25
 1091 646 1091 646 1058 645 c 2,26,-1
 1014 643 l 2,27,28
 913 638 913 638 799 706 c 0,29,30
 670 782 670 782 670 893 c 0,31,32
 670 1110 670 1110 912 1110 c 0,33,34
 1014 1110 1014 1110 1129 1013 c 0,35,36
 1235 923 1235 923 1245 808 c 2,0,-1
1104 710 m 1,37,-1
 1116 805 l 1,38,39
 1116 837 1116 837 1104 872 c 1,40,41
 1081 998 1081 998 983 998 c 1,42,-1
 944 993 l 2,43,44
 920 990 920 990 896 960 c 0,45,46
 875 934 875 934 869 907 c 1,47,48
 869 710 869 710 1104 710 c 1,37,-1
EndSplineSet
Fore
SplineSet
1014 720 m 5,0,-1
 914 716 l 5,1,-1
 902 716 l 5,2,-1
 894 716 l 6,3,4
 870 716 870 716 850 716 c 6,5,-1
 686 724 l 6,6,7
 614 732 614 732 550 764 c 4,8,9
 498 792 498 792 470 828 c 4,10,11
 414 892 414 892 430 992 c 4,12,13
 442 1092 442 1092 510 1176 c 4,14,15
 606 1300 606 1300 766 1300 c 4,16,17
 874 1300 874 1300 962 1228 c 4,18,19
 1026 1180 1026 1180 1070 1080 c 4,20,21
 1118 968 1118 968 1138 820 c 6,22,-1
 1142 684 l 5,23,-1
 1142 616 l 5,24,-1
 1142 548 l 5,25,-1
 1146 440 l 5,26,-1
 1146 328 l 5,27,28
 1202 328 1202 328 1242 292 c 4,29,30
 1278 256 1278 256 1242 100 c 5,31,-1
 1282 192 l 5,32,33
 1278 136 1278 136 1242 100 c 6,34,-1
 1194 72 l 5,35,-1
 1170 64 l 6,36,37
 1098 52 1098 52 1050 112 c 4,38,39
 1026 140 1026 140 1022 172 c 6,40,-1
 1018 208 l 5,41,-1
 1018 228 l 5,42,-1
 1018 248 l 5,43,-1
 1018 372 l 5,44,-1
 1018 416 l 5,45,-1
 1014 460 l 5,46,-1
 1014 720 l 5,0,-1
542 896 m 6,47,48
 550 844 550 844 602 832 c 6,49,-1
 650 828 l 5,50,-1
 662 832 l 5,51,-1
 666 832 l 5,52,-1
 694 832 l 5,53,-1
 886 832 l 5,54,-1
 966 832 l 5,55,-1
 978 832 l 5,56,-1
 1014 836 l 6,57,58
 1038 844 1038 844 1038 880 c 6,59,-1
 1034 900 l 5,60,-1
 1022 956 l 6,61,62
 994 1056 994 1056 930 1128 c 4,63,64
 874 1184 874 1184 830 1192 c 260,65,66
 786 1200 786 1200 726 1172 c 4,67,68
 618 1120 618 1120 566 1008 c 6,69,-1
 542 940 l 5,70,-1
 542 896 l 6,47,48
EndSplineSet
EndChar

StartChar: eight
Encoding: 56 56 27
Width: 1582
VWidth: 575
Flags: W
LayerCount: 2
Back
SplineSet
1219 1086 m 0,0,1
 1109 988 1109 988 924 837 c 2,2,-1
 667 628 l 2,3,4
 552 534 552 534 552 434 c 0,5,6
 552 318 552 318 719 267 c 1,7,8
 829 283 829 283 864 308 c 0,9,10
 886 324 886 324 962 427 c 0,11,12
 994 471 994 471 1066 471 c 1,13,-1
 1096 467 l 1,14,15
 1133 457 1133 457 1199 423 c 1,16,17
 1232 397 1232 397 1232 365 c 0,18,19
 1232 316 1232 316 1158 248 c 0,20,21
 1037 137 1037 137 855 137 c 0,22,23
 797 137 797 137 732 153 c 0,24,25
 682 165 682 165 621 196 c 0,26,27
 379 318 379 318 349 515 c 2,28,-1
 341 567 l 1,29,30
 341 599 341 599 386 644 c 0,31,32
 390 648 390 648 433 683 c 2,33,-1
 694 896 l 1,34,-1
 1027 1180 l 2,35,36
 1052 1201 1052 1201 1087 1205 c 0,37,38
 1119 1205 1119 1205 1158 1180 c 1,39,-1
 1209 1155 l 2,40,41
 1240 1140 1240 1140 1242 1123 c 0,42,43
 1242 1107 1242 1107 1219 1086 c 0,0,1
EndSplineSet
Fore
SplineSet
944 748 m 5,0,-1
 980 804 l 5,1,2
 1040 864 1040 864 1124 864 c 6,3,-1
 1164 864 l 5,4,-1
 1176 860 l 5,5,-1
 1180 860 l 6,6,7
 1244 860 1244 860 1280 876 c 4,8,9
 1320 888 1320 888 1336 924 c 6,10,-1
 1344 944 l 5,11,-1
 1344 948 l 5,12,-1
 1360 984 l 6,13,14
 1380 1004 1380 1004 1396 968 c 6,15,-1
 1400 964 l 5,16,-1
 1408 920 l 5,17,-1
 1404 872 l 5,18,-1
 1380 792 l 5,19,20
 1328 700 1328 700 1204 700 c 6,21,-1
 1184 700 l 6,22,23
 1152 704 1152 704 1136 704 c 4,24,25
 1056 704 1056 704 1020 660 c 4,26,27
 1004 644 1004 644 1012 604 c 6,28,-1
 1016 596 l 5,29,-1
 1020 576 l 6,30,31
 1024 500 1024 500 1000 424 c 4,32,33
 936 216 936 216 732 144 c 6,34,-1
 660 124 l 6,35,36
 520 96 520 96 440 172 c 4,37,38
 368 244 368 244 368 460 c 6,39,-1
 368 440 l 5,40,-1
 368 460 l 5,41,-1
 368 840 l 6,42,43
 368 860 368 860 368 904 c 6,44,-1
 368 1032 l 6,45,46
 364 1056 364 1056 324 1072 c 5,47,-1
 320 1072 l 5,48,-1
 292 1084 l 6,49,50
 228 1124 228 1124 232 1200 c 6,51,-1
 236 1220 l 6,52,53
 256 1312 256 1312 352 1324 c 4,54,55
 360 1324 360 1324 368 1324 c 4,56,57
 424 1324 424 1324 460 1280 c 4,58,59
 496 1240 496 1240 496 1156 c 6,60,-1
 496 1152 l 5,61,-1
 496 1148 l 6,62,63
 496 1144 496 1144 496 1136 c 6,64,-1
 496 1132 l 5,65,-1
 496 1128 l 5,66,-1
 496 1120 l 5,67,-1
 496 1088 l 5,68,-1
 496 876 l 5,69,-1
 496 848 l 5,70,-1
 500 756 l 5,71,-1
 520 796 l 5,72,-1
 524 800 l 5,73,-1
 536 816 l 6,74,75
 604 900 604 900 720 884 c 4,76,77
 868 868 868 868 940 748 c 5,78,-1
 944 748 l 5,0,-1
916 592 m 4,79,80
 928 660 928 660 848 688 c 4,81,82
 772 716 772 716 688 724 c 6,83,-1
 608 724 l 5,84,-1
 600 724 l 6,85,86
 604 724 604 724 588 724 c 6,87,-1
 560 720 l 6,88,89
 504 708 504 708 496 680 c 6,90,-1
 496 632 l 5,91,-1
 496 612 l 5,92,-1
 496 580 l 5,93,-1
 496 388 l 6,94,95
 496 296 496 296 544 264 c 4,96,97
 568 248 568 248 600 256 c 4,98,99
 640 260 640 260 684 292 c 6,100,-1
 692 296 l 6,101,102
 788 360 788 360 860 468 c 4,103,104
 904 536 904 536 916 592 c 4,79,80
EndSplineSet
EndChar

StartChar: nine
Encoding: 57 57 28
Width: 1582
VWidth: 575
Flags: WO
LayerCount: 2
Back
SplineSet
1240 102 m 0,0,1
 1240 -49 1240 -49 1130 -49 c 0,2,3
 1065 -49 1065 -49 979 63 c 1,4,5
 979 109 979 109 992 120 c 0,6,7
 1052 153 1052 153 1052 211 c 0,8,9
 1052 306 1052 306 911 416 c 0,10,11
 775 522 775 522 630 643 c 0,12,13
 461 784 461 784 434 815 c 0,14,15
 343 919 343 919 343 1048 c 0,16,17
 343 1170 343 1170 408 1248 c 0,18,19
 475 1330 475 1330 596 1342 c 2,20,-1
 635 1346 l 1,21,-1
 685 1340 l 1,22,23
 809 1340 809 1340 924 1227 c 0,24,25
 1026 1127 1026 1127 1026 1006 c 0,26,27
 1026 971 1026 971 1015 937 c 0,28,29
 981 832 981 832 920 790.5 c 128,-1,30
 859 749 859 749 747 749 c 0,31,32
 728 749 728 749 708 740 c 2,33,-1
 674 725 l 1,34,-1
 953 494 l 2,35,36
 1129 348 1129 348 1184.5 274.5 c 128,-1,37
 1240 201 1240 201 1240 102 c 0,0,1
808 937 m 0,38,39
 847 1002 847 1002 847 1089 c 0,40,41
 847 1138 847 1138 832 1167 c 1,42,43
 810 1233 810 1233 726 1233 c 0,44,45
 634 1233 634 1233 577 1136 c 0,46,47
 533 1061 533 1061 533 961 c 0,48,49
 533 845 533 845 596 808 c 1,50,51
 731 808 731 808 808 937 c 0,38,39
EndSplineSet
Fore
SplineSet
1060 280 m 1,0,1
 1124 308 1124 308 1156 340 c 2,2,-1
 1196 396 l 2,3,4
 1224 448 1224 448 1224 508 c 0,5,6
 1224 668 1224 668 1080 784 c 0,7,8
 984 864 984 864 748 920 c 1,9,-1
 744 924 l 1,10,11
 624 952 624 952 564 972 c 0,12,13
 420 1024 420 1024 388 1124 c 1,14,-1
 376 1204 l 1,15,-1
 392 1252 l 2,16,17
 428 1324 428 1324 508 1324 c 0,18,19
 608 1324 608 1324 636 1220 c 0,20,21
 648 1172 648 1172 620 1120 c 1,22,-1
 684 1096 l 1,23,-1
 748 1076 l 1,24,-1
 956 996 l 1,25,26
 1136 908 1136 908 1228 760 c 0,27,28
 1296 652 1296 652 1300 524 c 0,29,30
 1308 328 1308 328 1176 204 c 0,31,32
 1128 164 1128 164 1076 140 c 0,33,34
 1008 108 1008 108 924 100 c 1,35,-1
 924 184 l 2,36,37
 916 328 916 328 884 432 c 0,38,39
 848 528 848 528 784 580 c 0,40,41
 740 608 740 608 692 612 c 0,42,43
 564 620 564 620 496 508 c 1,44,-1
 480 468 l 2,45,46
 460 416 460 416 476 356 c 0,47,48
 484 332 484 332 496 300 c 2,49,-1
 504 280 l 1,50,51
 544 332 544 332 588 352 c 2,52,-1
 624 360 l 2,53,54
 740 380 740 380 796 276 c 0,55,56
 804 256 804 256 812 236 c 0,57,58
 812 232 812 232 812 228 c 0,59,60
 836 112 836 112 728 52 c 0,61,62
 708 40 708 40 688 36 c 2,63,-1
 620 32 l 1,64,-1
 552 48 l 2,65,66
 396 96 396 96 352 272 c 1,67,-1
 344 348 l 2,68,69
 340 372 340 372 344 392 c 0,70,71
 364 516 364 516 436 596 c 0,72,73
 532 696 532 696 684 696 c 0,74,75
 780 700 780 700 860 656 c 0,76,77
 1036 560 1036 560 1056 328 c 0,78,79
 1060 324 1060 324 1060 320 c 2,80,-1
 1060 280 l 1,0,1
EndSplineSet
EndChar

StartChar: semicolon
Encoding: 59 59 30
AltUni2: 00037e.ffffffff.0
Width: 1582
VWidth: 575
Flags: W
LayerCount: 2
Back
SplineSet
1282 1169 m 1,0,-1
 1106 1169 l 1,1,2
 1093 1136 1093 1136 1093 1109 c 0,3,4
 1093 1083 1093 1083 1111 987 c 0,5,6
 1122 929 1122 929 1122 899 c 2,7,-1
 1122 869 l 1,8,9
 1117 839 1117 839 1095 773 c 1,10,11
 1077 766 1077 766 1040 767 c 2,12,-1
 879 771 l 2,13,14
 646 777 646 777 559 674 c 0,15,16
 495 598 495 598 495 509 c 0,17,18
 495 415 495 415 557.5 347.5 c 128,-1,19
 620 280 620 280 714 280 c 1,20,-1
 765 285 l 2,21,22
 794 291 794 291 820 306 c 0,23,24
 833 316 833 316 832 345 c 2,25,-1
 830 400 l 2,26,27
 826 521 826 521 969 544 c 1,28,29
 1037 544 1037 544 1100.5 482 c 128,-1,30
 1164 420 1164 420 1164 352 c 0,31,32
 1164 317 1164 317 1149 285 c 0,33,34
 1143 271 1143 271 1102 231 c 0,35,36
 1065 195 1065 195 1065 182 c 1,37,-1
 1079 151 l 1,38,39
 1106 111 1106 111 1184 16 c 0,40,41
 1297 -122 1297 -122 1297 -189 c 0,42,43
 1297 -227 1297 -227 1268 -264 c 0,44,45
 1251 -280 1251 -280 1226 -280 c 0,46,47
 1183 -280 1183 -280 1116 -239 c 0,48,49
 1044 -195 1044 -195 1044 -156 c 0,50,51
 1044 -126 1044 -126 1072.5 -101 c 128,-1,52
 1101 -76 1101 -76 1104 -60 c 0,53,54
 1104 -16 1104 -16 1006 120 c 1,55,-1
 988 139 l 2,56,57
 973 151 973 151 948 155 c 1,58,-1
 923 151 l 1,59,-1
 863 146 l 2,60,61
 851 145 851 145 837 145 c 0,62,63
 697 145 697 145 534 274 c 0,64,65
 361 411 361 411 339 609 c 1,66,67
 339 763 339 763 447 844 c 0,68,69
 544 918 544 918 703 916 c 2,70,-1
 806 915 l 2,71,72
 882 914 882 914 898 921 c 0,73,74
 927 933 927 933 943 993 c 1,75,-1
 943 1169 l 1,76,-1
 286 1169 l 1,77,-1
 286 1325 l 1,78,-1
 1282 1325 l 1,79,-1
 1282 1169 l 1,0,-1
EndSplineSet
Fore
SplineSet
220 1384 m 1,0,-1
 1020 1384 l 1,1,-1
 1212 1384 l 1,2,-1
 1288 1376 l 1,3,-1
 1312 1344 l 1,4,-1
 1344 1272 l 1,5,-1
 472 1272 l 1,6,-1
 472 696 l 1,7,8
 648 872 648 872 872 1008 c 2,9,-1
 976 1068 l 1,10,-1
 992 1076 l 1,11,-1
 1028 1092 l 2,12,13
 1040 1096 1040 1096 1060 1076 c 2,14,-1
 1068 1068 l 1,15,-1
 1100 1036 l 1,16,-1
 1128 1004 l 1,17,-1
 1156 964 l 2,18,19
 1164 944 1164 944 1144 920 c 2,20,-1
 1128 888 l 1,21,-1
 1112 856 l 2,22,23
 1064 748 1064 748 1044 616 c 0,24,25
 1012 372 1012 372 1096 156 c 2,26,-1
 1128 80 l 1,27,-1
 1132 68 l 1,28,-1
 1164 4 l 1,29,-1
 1096 40 l 1,30,-1
 1056 92 l 1,31,-1
 1000 200 l 2,32,33
 904 400 904 400 932 828 c 1,34,-1
 912 672 l 1,35,-1
 932 828 l 1,36,37
 708 664 708 664 588 544 c 2,38,-1
 548 500 l 1,39,-1
 508 456 l 1,40,-1
 496 444 l 1,41,-1
 472 428 l 1,42,-1
 440 448 l 1,43,-1
 428 464 l 1,44,-1
 404 492 l 2,45,46
 356 540 356 540 348 588 c 0,47,48
 340 736 340 736 348 1044 c 2,49,-1
 348 1272 l 1,50,-1
 276 1276 l 1,51,-1
 252 1312 l 1,52,-1
 220 1384 l 1,0,-1
EndSplineSet
EndChar

StartChar: at
Encoding: 64 64 35
Width: 7
Flags: W
LayerCount: 2
Fore
SplineSet
2722 -1200 m 1,0,-1
 2769 -1200 l 1,1,2
 2672 -1350 2672 -1350 2542 -1451 c 0,3,4
 2357 -1594 2357 -1594 2105.5 -1672 c 128,-1,5
 1854 -1750 1854 -1750 1584 -1750 c 0,6,7
 1189 -1750 1189 -1750 863 -1597.5 c 128,-1,8
 537 -1445 537 -1445 396 -1200 c 1,9,-1
 450 -1200 l 1,10,11
 537 -1322 537 -1322 687.5 -1400.5 c 128,-1,12
 838 -1479 838 -1479 1069 -1518 c 128,-1,13
 1300 -1557 1300 -1557 1551 -1557 c 0,14,15
 1824 -1557 1824 -1557 2047 -1524 c 0,16,17
 2223 -1498 2223 -1498 2329.5 -1461.5 c 128,-1,18
 2436 -1425 2436 -1425 2534 -1362.5 c 128,-1,19
 2632 -1300 2632 -1300 2722 -1200 c 1,0,-1
EndSplineSet
Validated: 1
EndChar

StartChar: D
Encoding: 68 68 39
Width: 1582
Flags: W
LayerCount: 2
Back
SplineSet
1381 1169 m 1,0,-1
 1265 1169 l 1,1,-1
 1265 68 l 2,2,3
 1265 -3 1265 -3 1252 -3 c 0,4,5
 1238 -3 1238 -3 1152 79 c 0,6,7
 1094 134 1094 134 1081 169 c 1,8,9
 1072 206 1072 206 1072 358 c 1,10,-1
 965 304 l 2,11,12
 884 263 884 263 795 263 c 0,13,14
 696 263 696 263 632 293 c 0,15,16
 575 319 575 319 499 394 c 0,17,18
 383 507 383 507 383 639 c 0,19,20
 383 696 383 696 414 731 c 2,21,-1
 476 801 l 1,22,23
 460 829 460 829 422 858 c 1,24,-1
 376 885 l 2,25,26
 354 898 354 898 345 906 c 0,27,28
 310 929 310 929 292 981 c 1,29,30
 280 1046 280 1046 280 1101 c 2,31,-1
 280 1123 l 2,32,33
 280 1169 280 1169 201 1169 c 1,34,-1
 201 1325 l 1,35,-1
 433 1325 l 1,36,-1
 528 1169 l 1,37,-1
 483 1169 l 1,38,-1
 454 1078 l 2,39,40
 445 1049 445 1049 445 1007 c 0,41,42
 445 911 445 911 538 838 c 1,43,44
 624 871 624 871 690 871 c 0,45,46
 758 871 758 871 808 811 c 2,47,-1
 837 776 l 2,48,49
 858 751 858 751 858 737 c 0,50,51
 858 711 858 711 792 711 c 0,52,53
 686 711 686 711 616 669 c 0,54,55
 532 618 532 618 532 519 c 0,56,57
 532 400 532 400 658 406 c 2,58,-1
 701 408 l 2,59,60
 818 413 818 413 940 486 c 0,61,62
 1045 549 1045 549 1092 622 c 1,63,-1
 1092 1169 l 1,64,-1
 744 1169 l 1,65,-1
 642 1325 l 1,66,-1
 1381 1325 l 1,67,-1
 1381 1169 l 1,0,-1
1224 -400 m 1,68,-1
 264 -400 l 1,69,-1
 264 -312 l 1,70,-1
 1224 -312 l 1,71,-1
 1224 -400 l 1,68,-1
EndSplineSet
Fore
SplineSet
1030 1508 m 1,0,-1
 1154 1392 l 1,1,-1
 1278 1380 l 1,2,-1
 1298 1348 l 1,3,-1
 1334 1272 l 1,4,-1
 1154 1272 l 1,5,-1
 1154 4 l 1,6,-1
 1138 12 l 2,7,8
 1110 28 1110 28 1098 48 c 2,9,-1
 1094 64 l 1,10,-1
 1090 80 l 1,11,-1
 1086 96 l 1,12,-1
 1062 176 l 2,13,14
 1034 260 1034 260 946 352 c 0,15,16
 810 492 810 492 618 584 c 1,17,-1
 482 632 l 1,18,-1
 454 640 l 1,19,-1
 450 640 l 1,20,-1
 446 640 l 1,21,-1
 442 644 l 1,22,-1
 402 656 l 1,23,-1
 378 688 l 1,24,-1
 362 708 l 1,25,-1
 342 740 l 1,26,-1
 302 808 l 1,27,-1
 466 916 l 1,28,-1
 562 968 l 1,29,-1
 562 972 l 1,30,31
 434 976 434 976 406 1116 c 1,32,-1
 406 1120 l 1,33,-1
 402 1172 l 1,34,-1
 402 1180 l 1,35,-1
 402 1192 l 1,36,37
 422 1348 422 1348 554 1404 c 1,38,-1
 606 1416 l 1,39,-1
 638 1416 l 2,40,41
 702 1408 702 1408 734 1384 c 0,42,43
 798 1340 798 1340 790 1268 c 0,44,45
 790 1232 790 1232 766 1200 c 0,46,47
 734 1160 734 1160 674 1160 c 0,48,49
 626 1160 626 1160 590 1196 c 0,50,51
 562 1224 562 1224 562 1284 c 1,52,-1
 518 1244 l 1,53,54
 458 1156 458 1156 562 1088 c 2,55,-1
 602 1064 l 2,56,57
 658 1040 658 1040 694 1044 c 2,58,-1
 742 1060 l 1,59,-1
 778 1076 l 1,60,-1
 850 1104 l 1,61,-1
 918 1132 l 1,62,-1
 954 1148 l 1,63,-1
 994 1160 l 1,64,-1
 1026 1180 l 1,65,-1
 1034 1232 l 1,66,-1
 1030 1252 l 1,67,-1
 1030 1280 l 1,68,-1
 1030 1508 l 1,0,-1
522 764 m 1,69,70
 586 752 586 752 678 688 c 0,71,72
 766 636 766 636 854 552 c 256,73,74
 942 468 942 468 1030 352 c 1,75,-1
 1030 1016 l 1,76,77
 834 948 834 948 666 852 c 2,78,-1
 618 828 l 1,79,-1
 562 796 l 1,80,-1
 522 764 l 1,69,70
1271 -400 m 1,81,-1
 311 -400 l 1,82,-1
 311 -300 l 1,83,-1
 1271 -300 l 1,84,-1
 1271 -400 l 1,81,-1
EndSplineSet
EndChar

StartChar: E
Encoding: 69 69 40
Width: 0
Flags: W
LayerCount: 2
Fore
SplineSet
1303 3639 m 1,0,-1
 1303 2498 l 1,1,-1
 1138 2498 l 1,2,-1
 1138 3309 l 1,3,-1
 1 3309 l 1,4,-1
 1 3640 l 1,5,-1
 1229 3640 l 1,6,-1
 1229 3639 l 1,7,-1
 1303 3639 l 1,0,-1
EndSplineSet
Validated: 1
EndChar

StartChar: G
Encoding: 71 71 42
Width: 1582
Flags: W
LayerCount: 2
Back
SplineSet
1397 1169 m 1,0,-1
 1291 1169 l 1,1,-1
 1291 59 l 2,2,3
 1291 -1 1291 -1 1262 -2 c 0,4,5
 1235 0 1235 0 1115 155 c 1,6,7
 1096 193 1096 193 1096 247 c 2,8,-1
 1096 1169 l 1,9,-1
 625 1169 l 1,10,-1
 686 891 l 2,11,12
 715 760 715 760 715 660 c 0,13,14
 715 525 715 525 650 445 c 0,15,16
 604 389 604 389 533 389 c 1,17,18
 432 400 432 400 340 528 c 0,19,20
 257 643 257 643 246 750 c 1,21,22
 246 830 246 830 300 830 c 0,23,24
 336 830 336 830 385 797 c 0,25,26
 419 774 419 774 442 774 c 0,27,28
 518 773 518 773 518 979 c 0,29,30
 518 1040 518 1040 509 1097 c 2,31,-1
 498 1169 l 1,32,-1
 186 1169 l 1,33,-1
 186 1325 l 1,34,-1
 1397 1325 l 1,35,-1
 1397 1169 l 1,0,-1
1209 -400 m 1,36,-1
 249 -400 l 1,37,-1
 249 -312 l 1,38,-1
 1209 -312 l 1,39,-1
 1209 -400 l 1,36,-1
EndSplineSet
Fore
SplineSet
1097 1508 m 1,0,-1
 1221 1392 l 1,1,-1
 1345 1380 l 1,2,-1
 1365 1348 l 1,3,-1
 1401 1272 l 1,4,-1
 1221 1272 l 1,5,-1
 1221 4 l 1,6,-1
 1181 32 l 1,7,-1
 1141 60 l 1,8,-1
 1129 72 l 1,9,-1
 1125 72 l 1,10,-1
 1121 76 l 1,11,-1
 1101 96 l 1,12,-1
 1097 128 l 1,13,-1
 1097 148 l 1,14,-1
 1097 164 l 1,15,-1
 1097 300 l 1,16,-1
 1097 792 l 1,17,-1
 1097 928 l 1,18,-1
 1097 948 l 1,19,-1
 1097 952 l 1,20,-1
 1097 956 l 1,21,-1
 1093 1000 l 2,22,23
 1089 1028 1089 1028 1045 1064 c 2,24,-1
 1025 1084 l 1,25,-1
 965 1140 l 1,26,-1
 925 1176 l 1,27,28
 749 1312 749 1312 637 1284 c 2,29,-1
 601 1272 l 1,30,-1
 553 1244 l 1,31,-1
 533 1224 l 1,32,-1
 505 1184 l 1,33,-1
 481 1120 l 1,34,-1
 477 1088 l 1,35,36
 561 1112 561 1112 649 1112 c 2,37,-1
 745 1096 l 1,38,-1
 809 1060 l 1,39,-1
 849 1016 l 2,40,41
 893 948 893 948 881 868 c 0,42,43
 869 780 869 780 805 676 c 0,44,45
 773 616 773 616 717 556 c 2,46,-1
 705 544 l 1,47,-1
 701 540 l 1,48,-1
 685 528 l 1,49,-1
 669 524 l 2,50,51
 657 516 657 516 637 536 c 2,52,-1
 629 540 l 1,53,-1
 557 588 l 1,54,-1
 557 592 l 1,55,56
 689 724 689 724 741 852 c 2,57,-1
 749 872 l 1,58,-1
 761 912 l 2,59,60
 769 952 769 952 757 972 c 0,61,62
 729 1032 729 1032 641 1016 c 2,63,-1
 577 992 l 1,64,-1
 573 992 l 1,65,-1
 569 988 l 1,66,-1
 549 980 l 1,67,-1
 509 956 l 1,68,-1
 485 944 l 1,69,-1
 457 932 l 1,70,-1
 437 924 l 1,71,-1
 405 916 l 1,72,-1
 365 920 l 1,73,-1
 349 944 l 1,74,-1
 341 956 l 1,75,-1
 317 1044 l 1,76,-1
 313 1104 l 1,77,78
 329 1272 329 1272 525 1352 c 0,79,80
 573 1372 573 1372 721 1384 c 2,81,-1
 625 1380 l 1,82,-1
 721 1384 l 2,83,84
 777 1376 777 1376 845 1340 c 0,85,86
 953 1288 953 1288 1097 1136 c 1,87,-1
 1097 1508 l 1,0,-1
1272 -400 m 1,88,-1
 312 -400 l 1,89,-1
 312 -300 l 1,90,-1
 1272 -300 l 1,91,-1
 1272 -400 l 1,88,-1
EndSplineSet
EndChar

StartChar: L
Encoding: 76 76 47
Width: 0
Flags: W
LayerCount: 2
Fore
SplineSet
-428 -824 m 1,0,-1
 -492 -902 l 1,1,-1
 -544 -960 l 1,2,3
 -566 -972 -566 -972 -578 -972 c 0,4,5
 -594 -972 -594 -972 -662 -892 c 2,6,-1
 -725 -820 l 1,7,-1
 -725 -783 l 1,8,-1
 -650 -681 l 2,9,10
 -622 -643 -622 -643 -594 -627 c 1,11,12
 -566 -627 -566 -627 -428 -783 c 1,13,-1
 -426 -804 l 1,14,-1
 -428 -824 l 1,0,-1
-873 -824 m 1,15,-1
 -937 -902 l 1,16,-1
 -989 -960 l 1,17,18
 -1011 -972 -1011 -972 -1023 -972 c 0,19,20
 -1039 -972 -1039 -972 -1107 -892 c 2,21,-1
 -1170 -820 l 1,22,-1
 -1170 -783 l 1,23,-1
 -1095 -681 l 2,24,25
 -1067 -643 -1067 -643 -1039 -627 c 1,26,27
 -1011 -627 -1011 -627 -873 -783 c 1,28,-1
 -871 -804 l 1,29,-1
 -873 -824 l 1,15,-1
EndSplineSet
Validated: 1
EndChar

StartChar: M
Encoding: 77 77 48
Width: 1582
Flags: W
LayerCount: 2
Back
SplineSet
1394 1169 m 1,0,-1
 1253 1169 l 1,1,-1
 1253 56 l 1,2,3
 1257 -4 1257 -4 1230 0 c 1,4,5
 1205 -4 1205 -4 1137.5 68 c 128,-1,6
 1070 140 1070 140 1062 176 c 1,7,-1
 1062 529 l 1,8,-1
 659 529 l 1,9,10
 624 512 624 512 627 480 c 2,11,-1
 631 432 l 1,12,-1
 631 407 l 2,13,14
 631 390 631 390 627 372 c 1,15,16
 627 347 627 347 596 330 c 0,17,18
 569 315 569 315 542 315 c 0,19,20
 488 315 488 315 431 379 c 2,21,-1
 340 482 l 1,22,23
 251 557 251 557 251 626 c 0,24,25
 251 712 251 712 338 712 c 2,26,-1
 376 712 l 1,27,-1
 405 714 l 1,28,-1
 434 724 l 1,29,-1
 434 1169 l 1,30,-1
 189 1169 l 1,31,-1
 189 1325 l 1,32,-1
 1394 1325 l 1,33,-1
 1394 1169 l 1,0,-1
1068 706 m 1,34,-1
 1068 1169 l 1,35,-1
 618 1169 l 1,36,-1
 618 706 l 1,37,-1
 1068 706 l 1,34,-1
887 1370 m 1,38,-1
 791 1370 l 1,39,-1
 791 2058 l 1,40,-1
 887 2058 l 1,41,-1
 887 1370 l 1,38,-1
EndSplineSet
Fore
SplineSet
174 1384 m 1,0,-1
 1070 1384 l 1,1,-1
 1274 1384 l 1,2,-1
 1358 1376 l 1,3,-1
 1382 1344 l 1,4,-1
 1414 1272 l 1,5,-1
 1234 1272 l 1,6,-1
 1234 4 l 1,7,-1
 1218 12 l 2,8,9
 1190 28 1190 28 1178 48 c 2,10,-1
 1166 84 l 1,11,-1
 1166 104 l 1,12,-1
 1162 120 l 1,13,-1
 1150 160 l 1,14,-1
 1118 240 l 1,15,16
 1030 400 1030 400 842 516 c 1,17,18
 810 444 810 444 762 404 c 0,19,20
 722 372 722 372 674 360 c 2,21,-1
 590 352 l 1,22,23
 450 372 450 372 402 504 c 0,24,25
 382 552 382 552 390 600 c 0,26,27
 394 664 394 664 430 716 c 0,28,29
 446 740 446 740 494 776 c 0,30,31
 542 808 542 808 594 812 c 0,32,33
 642 816 642 816 706 800 c 1,34,-1
 710 800 l 1,35,-1
 714 796 l 1,36,-1
 762 784 l 1,37,-1
 766 808 l 1,38,-1
 770 840 l 1,39,-1
 766 900 l 2,40,41
 750 968 750 968 666 1024 c 2,42,-1
 514 1100 l 1,43,-1
 438 1132 l 2,44,45
 378 1160 378 1160 330 1208 c 2,46,-1
 318 1224 l 1,47,-1
 318 1228 l 1,48,-1
 314 1236 l 1,49,-1
 294 1260 l 1,50,-1
 262 1272 l 1,51,-1
 262 1272 l 1,52,-1
 230 1280 l 1,53,-1
 210 1304 l 1,54,-1
 206 1312 l 1,55,-1
 190 1348 l 1,56,-1
 174 1384 l 1,0,-1
566 1268 m 1,57,58
 606 1244 606 1244 666 1180 c 1,59,-1
 670 1172 l 1,60,-1
 686 1156 l 2,61,62
 818 1008 818 1008 874 852 c 2,63,-1
 898 760 l 1,64,-1
 898 748 l 1,65,-1
 906 700 l 1,66,-1
 926 676 l 1,67,-1
 930 672 l 1,68,-1
 938 664 l 1,69,-1
 986 612 l 2,70,71
 1034 564 1034 564 1082 484 c 2,72,-1
 1110 440 l 1,73,-1
 1110 1272 l 1,74,-1
 566 1272 l 1,75,-1
 566 1268 l 1,57,58
844 2060 m 1,76,-1
 844 1510 l 1,77,-1
 744 1510 l 1,78,-1
 744 2060 l 1,79,-1
 844 2060 l 1,76,-1
EndSplineSet
EndChar

StartChar: N
Encoding: 78 78 49
Width: 1582
Flags: W
LayerCount: 2
Back
SplineSet
1093 1168 m 1,0,-1
 1004 1168 l 1,1,-1
 1004 75 l 2,2,3
 1005 1 1005 1 980 0 c 0,4,5
 954 -1 954 -1 883 73 c 2,6,-1
 832 130 l 2,7,8
 806 159 806 159 801 188 c 1,9,-1
 802 639 l 1,10,-1
 489 639 l 2,11,12
 454 639 454 639 424 614 c 0,13,14
 404 598 404 598 400 566 c 1,15,-1
 404 548 l 1,16,17
 434 455 434 455 434 401 c 0,18,19
 434 336 434 336 402 325 c 1,20,-1
 342 318 l 1,21,22
 282 318 282 318 223 364 c 1,23,-1
 158 428 l 2,24,25
 59 525 59 525 59 634 c 0,26,27
 59 816 59 816 324 808 c 1,28,-1
 823 807 l 1,29,-1
 823 1168 l 1,30,-1
 0 1168 l 1,31,-1
 0 1325 l 1,32,-1
 1093 1325 l 1,33,-1
 1093 1168 l 1,0,-1
1582 1169 m 1,34,-1
 1433 1169 l 1,35,-1
 1434 20 l 2,36,37
 1434 -6 1434 -6 1423 -6 c 0,38,39
 1414 -6 1414 -6 1394 8 c 2,40,-1
 1339 58 l 1,41,-1
 1285 112 l 2,42,43
 1262 135 1262 135 1257 166 c 1,44,-1
 1257 1169 l 1,45,-1
 1095 1169 l 1,46,-1
 1095 1325 l 1,47,-1
 1283 1325 l 1,48,-1
 1286 1365 l 2,49,50
 1291 1433 1291 1433 1252 1520 c 2,51,-1
 1211 1611 l 2,52,53
 1181 1677 1181 1677 1114.5 1721.5 c 128,-1,54
 1048 1766 1048 1766 976 1766 c 0,55,56
 945 1766 945 1766 917 1757 c 0,57,58
 769 1710 769 1710 777 1492 c 2,59,-1
 779 1439 l 2,60,61
 781 1394 781 1394 753 1394 c 0,62,63
 700 1393 700 1393 639 1497 c 0,64,65
 582 1594 582 1594 582 1653 c 0,66,67
 582 1742 582 1742 640 1828 c 0,68,69
 727 1956 727 1956 890 1956 c 0,70,71
 1075 1956 1075 1956 1187 1807 c 0,72,73
 1242 1733 1242 1733 1283 1642 c 0,74,75
 1318 1565 1318 1565 1378 1325 c 1,76,-1
 1582 1325 l 1,77,-1
 1582 1169 l 1,34,-1
1299 -400 m 1,78,-1
 339 -400 l 1,79,-1
 339 -312 l 1,80,-1
 1299 -312 l 1,81,-1
 1299 -400 l 1,78,-1
EndSplineSet
Fore
SplineSet
1303 1272 m 5,0,-1
 1047 1272 l 5,1,-1
 1027 1272 l 5,2,-1
 1003 1272 l 6,3,4
 967 1272 967 1272 955 1284 c 6,5,-1
 943 1296 l 5,6,-1
 935 1312 l 5,7,-1
 923 1332 l 6,8,9
 907 1356 907 1356 911 1372 c 4,10,11
 911 1384 911 1384 919 1404 c 6,12,-1
 923 1420 l 5,13,-1
 927 1440 l 6,14,15
 927 1476 927 1476 899 1500 c 4,16,17
 867 1524 867 1524 811 1544 c 4,18,19
 795 1548 795 1548 767 1556 c 4,20,21
 703 1572 703 1572 591 1580 c 6,22,-1
 587 1580 l 5,23,-1
 571 1580 l 6,24,25
 343 1592 343 1592 251 1668 c 4,26,27
 211 1704 211 1704 183 1740 c 4,28,29
 167 1768 167 1768 159 1800 c 4,30,31
 119 1948 119 1948 295 2032 c 5,32,-1
 343 2048 l 5,33,-1
 351 2052 l 5,34,35
 463 2080 463 2080 595 2068 c 4,36,37
 967 2044 967 2044 1219 1768 c 4,38,39
 1235 1748 1235 1748 1251 1732 c 4,40,41
 1391 1560 1391 1560 1411 1384 c 5,42,-1
 1507 1384 l 5,43,-1
 1551 1376 l 5,44,-1
 1575 1344 l 5,45,-1
 1607 1272 l 5,46,-1
 1427 1272 l 5,47,-1
 1427 4 l 5,48,-1
 1347 60 l 5,49,-1
 1311 92 l 5,50,-1
 1303 184 l 5,51,-1
 1303 404 l 5,52,-1
 1303 1272 l 5,0,-1
1315 1384 m 5,53,54
 1315 1448 1315 1448 1295 1528 c 4,55,56
 1215 1808 1215 1808 887 1920 c 4,57,58
 803 1952 803 1952 711 1964 c 4,59,60
 703 1964 703 1964 695 1964 c 6,61,-1
 579 1968 l 6,62,63
 447 1964 447 1964 359 1916 c 4,64,65
 259 1856 259 1856 255 1764 c 4,66,67
 255 1720 255 1720 315 1704 c 6,68,-1
 407 1688 l 5,69,-1
 499 1684 l 6,70,71
 523 1684 523 1684 543 1684 c 4,72,73
 771 1672 771 1672 915 1552 c 4,74,75
 1015 1476 1015 1476 1027 1384 c 5,76,-1
 1315 1384 l 5,53,54
-25 1384 m 5,77,-1
 871 1384 l 5,78,-1
 1075 1384 l 5,79,-1
 1159 1376 l 5,80,-1
 1183 1344 l 5,81,-1
 1215 1272 l 5,82,-1
 1035 1272 l 5,83,-1
 1035 4 l 5,84,-1
 1015 16 l 6,85,86
 987 32 987 32 979 48 c 6,87,-1
 971 88 l 5,88,-1
 971 100 l 5,89,-1
 967 128 l 5,90,-1
 935 268 l 6,91,92
 871 480 871 480 723 632 c 4,93,94
 611 736 611 736 491 744 c 5,95,96
 535 692 535 692 547 640 c 4,97,98
 551 604 551 604 547 568 c 4,99,100
 531 436 531 436 399 404 c 5,101,-1
 327 396 l 6,102,103
 263 400 263 400 215 436 c 4,104,105
 183 464 183 464 163 496 c 4,106,107
 131 552 131 552 135 628 c 4,108,109
 143 760 143 760 243 840 c 4,110,111
 331 916 331 916 443 908 c 4,112,113
 639 900 639 900 831 636 c 5,114,-1
 819 656 l 6,115,116
 823 644 823 644 831 636 c 6,117,-1
 847 608 l 6,118,119
 895 540 895 540 907 500 c 5,120,-1
 911 500 l 5,121,-1
 911 1272 l 5,122,-1
 283 1272 l 5,123,-1
 111 1272 l 5,124,-1
 31 1276 l 5,125,-1
 7 1312 l 5,126,-1
 -25 1384 l 5,77,-1
1273 -400 m 1,127,-1
 313 -400 l 1,128,-1
 313 -300 l 1,129,-1
 1273 -300 l 1,130,-1
 1273 -400 l 1,127,-1
EndSplineSet
EndChar

StartChar: Q
Encoding: 81 81 52
Width: 0
Flags: W
LayerCount: 2
Fore
SplineSet
271 3639 m 1,0,-1
 271 3640 l 1,1,-1
 1499 3640 l 1,2,-1
 1499 3309 l 1,3,-1
 362 3309 l 1,4,-1
 362 2498 l 1,5,-1
 197 2498 l 1,6,-1
 197 3639 l 1,7,-1
 271 3639 l 1,0,-1
EndSplineSet
Validated: 1
EndChar

StartChar: R
Encoding: 82 82 53
Width: 1582
Flags: W
LayerCount: 2
Back
SplineSet
955 1489 m 2,0,1
 1002 1433 1002 1433 1002 1399 c 0,2,3
 1002 1382 1002 1382 985 1379 c 0,4,5
 952 1379 952 1379 910 1433 c 2,6,-1
 769 1613 l 2,7,8
 739 1651 739 1651 683 1684 c 0,9,10
 652 1698 652 1698 623 1698 c 1,11,-1
 580 1692 l 1,12,-1
 536 1685 l 1,13,-1
 508 1680 l 1,14,-1
 479 1678 l 2,15,16
 432 1675 432 1675 358 1777 c 2,17,-1
 324 1824 l 2,18,19
 297 1861 297 1861 297 1877 c 0,20,21
 296 1907 296 1907 368 1907 c 0,22,23
 606 1907 606 1907 789 1688 c 2,24,-1
 955 1489 l 2,0,1
1287 1169 m 1,25,-1
 1019 1169 l 1,26,27
 1019 1139 1019 1139 1021 1108 c 0,28,29
 1023 1086 1023 1086 1027 1028 c 2,30,-1
 1036 889 l 2,31,32
 1038 858 1038 858 1038 839 c 0,33,34
 1038 646 1038 646 942 507 c 0,35,36
 903 450 903 450 903 402 c 0,37,38
 903 363 903 363 928 336 c 0,39,40
 1003 253 1003 253 1075 204 c 2,41,-1
 1234 95 l 2,42,43
 1287 59 1287 59 1287 -1 c 0,44,45
 1287 -50 1287 -50 1246 -50 c 0,46,47
 1220 -50 1220 -50 1190 -25 c 2,48,-1
 1013 122 l 1,49,-1
 840 274 l 2,50,51
 769 336 769 336 678 448 c 0,52,53
 667 461 667 461 632 510 c 0,54,55
 595 556 595 556 533 656 c 0,56,57
 525 673 525 673 520 689 c 2,58,-1
 511 747 l 1,59,60
 511 859 511 859 597 859 c 0,61,62
 625 859 625 859 682 833.5 c 128,-1,63
 739 808 739 808 768 808 c 0,64,65
 792 808 792 808 807 816 c 1,66,67
 850 879 850 879 850 994 c 0,68,69
 850 1061 850 1061 840 1115 c 0,70,71
 838 1144 838 1144 830 1169 c 1,72,-1
 452 1169 l 1,73,-1
 452 1325 l 1,74,-1
 1287 1325 l 1,75,-1
 1287 1169 l 1,25,-1
1269 -400 m 1,76,-1
 456 -400 l 1,77,-1
 456 -312 l 1,78,-1
 1269 -312 l 1,79,-1
 1269 -400 l 1,76,-1
EndSplineSet
Fore
SplineSet
490 1384 m 5,0,-1
 1290 1384 l 5,1,-1
 1482 1384 l 5,2,-1
 1558 1376 l 5,3,-1
 1582 1344 l 5,4,-1
 1614 1272 l 5,5,-1
 1434 1272 l 5,6,-1
 1434 4 l 5,7,-1
 1418 12 l 6,8,9
 1390 28 1390 28 1378 48 c 6,10,-1
 1374 64 l 5,11,-1
 1370 80 l 5,12,-1
 1366 96 l 5,13,-1
 1342 176 l 6,14,15
 1314 260 1314 260 1226 352 c 4,16,17
 1090 492 1090 492 898 584 c 5,18,-1
 762 632 l 5,19,-1
 734 640 l 5,20,-1
 730 640 l 5,21,-1
 726 640 l 5,22,-1
 722 644 l 5,23,-1
 682 656 l 5,24,-1
 658 688 l 5,25,-1
 642 708 l 5,26,-1
 622 740 l 5,27,-1
 582 808 l 5,28,29
 842 976 842 976 1014 1060 c 6,30,-1
 1202 1136 l 5,31,-1
 1234 1148 l 5,32,-1
 1250 1152 l 5,33,-1
 1298 1172 l 6,34,35
 1314 1184 1314 1184 1314 1228 c 6,36,-1
 1314 1232 l 5,37,-1
 1314 1236 l 5,38,-1
 1314 1240 l 5,39,-1
 1310 1248 l 5,40,-1
 1310 1272 l 5,41,-1
 766 1272 l 5,42,-1
 614 1272 l 5,43,-1
 546 1276 l 5,44,-1
 522 1312 l 5,45,-1
 490 1384 l 5,0,-1
802 764 m 5,46,47
 866 752 866 752 958 688 c 4,48,49
 1046 636 1046 636 1134 552 c 260,50,51
 1222 468 1222 468 1310 352 c 5,52,-1
 1310 1016 l 5,53,54
 1114 948 1114 948 946 852 c 6,55,-1
 898 828 l 5,56,-1
 842 796 l 5,57,-1
 802 764 l 5,46,47
810 392 m 6,58,-1
 834 396 l 5,59,-1
 862 392 l 6,60,61
 942 376 942 376 950 280 c 4,62,63
 950 188 950 188 858 168 c 6,64,-1
 834 164 l 5,65,-1
 806 168 l 6,66,67
 726 184 726 184 718 280 c 4,68,69
 718 372 718 372 810 392 c 6,58,-1
-30 1384 m 5,70,-1
 410 1384 l 5,71,-1
 526 1384 l 5,72,-1
 578 1376 l 5,73,-1
 602 1344 l 5,74,-1
 634 1272 l 5,75,-1
 606 1272 l 5,76,-1
 578 1272 l 5,77,-1
 522 1268 l 5,78,-1
 446 1228 l 6,79,80
 366 1176 366 1176 298 1096 c 4,81,82
 174 940 174 940 154 728 c 5,83,-1
 158 584 l 6,84,85
 166 380 166 380 254 248 c 5,86,87
 278 288 278 288 310 316 c 6,88,-1
 366 340 l 5,89,90
 486 372 486 372 554 268 c 4,91,92
 598 200 598 200 574 124 c 6,93,-1
 566 104 l 6,94,95
 554 80 554 80 538 64 c 4,96,97
 478 -4 478 -4 378 8 c 4,98,99
 290 16 290 16 222 76 c 4,100,101
 162 132 162 132 122 240 c 6,102,-1
 106 292 l 6,103,104
 74 420 74 420 66 576 c 4,105,106
 54 820 54 820 110 996 c 4,107,108
 150 1112 150 1112 254 1272 c 5,109,-1
 94 1272 l 5,110,-1
 26 1280 l 5,111,-1
 2 1312 l 5,112,-1
 -30 1384 l 5,70,-1
1273 -400 m 1,113,-1
 313 -400 l 1,114,-1
 313 -300 l 1,115,-1
 1273 -300 l 1,116,-1
 1273 -400 l 1,113,-1
EndSplineSet
EndChar

StartChar: U
Encoding: 85 85 56
Width: 0
Flags: W
LayerCount: 2
Fore
SplineSet
-406 2303 m 1,0,-1
 -470 2225 l 1,1,-1
 -522 2167 l 1,2,3
 -544 2155 -544 2155 -556 2155 c 0,4,5
 -572 2155 -572 2155 -640 2235 c 2,6,-1
 -703 2307 l 1,7,-1
 -703 2344 l 1,8,-1
 -628 2446 l 2,9,10
 -600 2484 -600 2484 -572 2500 c 1,11,12
 -544 2500 -544 2500 -406 2344 c 1,13,-1
 -404 2323 l 1,14,-1
 -406 2303 l 1,0,-1
-889 2303 m 1,15,-1
 -953 2225 l 1,16,-1
 -1005 2167 l 1,17,18
 -1027 2155 -1027 2155 -1039 2155 c 0,19,20
 -1055 2155 -1055 2155 -1123 2235 c 2,21,-1
 -1186 2307 l 1,22,-1
 -1186 2344 l 1,23,-1
 -1111 2446 l 2,24,25
 -1083 2484 -1083 2484 -1055 2500 c 1,26,27
 -1027 2500 -1027 2500 -889 2344 c 1,28,-1
 -887 2323 l 1,29,-1
 -889 2303 l 1,15,-1
EndSplineSet
Validated: 1
EndChar

StartChar: W
Encoding: 87 87 58
Width: 0
Flags: W
LayerCount: 2
Fore
SplineSet
-46 3643 m 1,0,-1
 1547 3643 l 1,1,-1
 1565 3625 l 1,2,-1
 1565 3328 l 1,3,-1
 1547 3310 l 1,4,-1
 917 3310 l 1,5,-1
 917 3166 l 1,6,-1
 899 3148 l 1,7,-1
 602 3148 l 1,8,-1
 584 3166 l 1,9,-1
 584 3310 l 1,10,-1
 -46 3310 l 1,11,-1
 -64 3328 l 1,12,-1
 -64 3625 l 1,13,-1
 -46 3643 l 1,0,-1
602 2995 m 1,14,-1
 899 2995 l 1,15,-1
 917 2977 l 1,16,-1
 917 2842 l 1,17,-1
 899 2824 l 1,18,-1
 602 2824 l 1,19,-1
 584 2842 l 1,20,-1
 584 2977 l 1,21,-1
 602 2995 l 1,14,-1
602 2671 m 1,22,-1
 899 2671 l 1,23,-1
 917 2653 l 1,24,-1
 917 2518 l 1,25,-1
 899 2500 l 1,26,-1
 602 2500 l 1,27,-1
 584 2518 l 1,28,-1
 584 2653 l 1,29,-1
 602 2671 l 1,22,-1
EndSplineSet
Validated: 1
EndChar

StartChar: bracketleft
Encoding: 91 91 62
Width: 1582
VWidth: 575
Flags: W
LayerCount: 2
Back
SplineSet
1038 1169 m 1,0,-1
 862 1169 l 1,1,2
 849 1136 849 1136 849 1109 c 0,3,4
 849 1083 849 1083 867 987 c 0,5,6
 878 929 878 929 878 899 c 2,7,-1
 878 869 l 1,8,9
 873 839 873 839 851 773 c 1,10,11
 833 766 833 766 796 767 c 2,12,-1
 635 771 l 2,13,14
 402 777 402 777 315 674 c 0,15,16
 251 598 251 598 251 509 c 0,17,18
 251 415 251 415 313.5 347.5 c 128,-1,19
 376 280 376 280 470 280 c 1,20,-1
 521 285 l 2,21,22
 550 291 550 291 576 306 c 0,23,24
 589 316 589 316 588 345 c 2,25,-1
 586 400 l 2,26,27
 582 521 582 521 725 544 c 1,28,29
 793 544 793 544 856.5 482 c 128,-1,30
 920 420 920 420 920 352 c 0,31,32
 920 317 920 317 905 285 c 0,33,34
 899 271 899 271 858 231 c 0,35,36
 821 195 821 195 821 182 c 1,37,-1
 835 151 l 1,38,39
 862 111 862 111 940 16 c 0,40,41
 1053 -122 1053 -122 1053 -189 c 0,42,43
 1053 -227 1053 -227 1024 -264 c 0,44,45
 1007 -280 1007 -280 982 -280 c 0,46,47
 939 -280 939 -280 872 -239 c 0,48,49
 800 -195 800 -195 800 -156 c 0,50,51
 800 -126 800 -126 828.5 -101 c 128,-1,52
 857 -76 857 -76 860 -60 c 0,53,54
 860 -16 860 -16 762 120 c 1,55,-1
 744 139 l 2,56,57
 729 151 729 151 704 155 c 1,58,-1
 679 151 l 1,59,-1
 619 146 l 2,60,61
 607 145 607 145 593 145 c 0,62,63
 453 145 453 145 290 274 c 0,64,65
 117 411 117 411 95 609 c 1,66,67
 95 763 95 763 203 844 c 0,68,69
 300 918 300 918 459 916 c 2,70,-1
 562 915 l 2,71,72
 638 914 638 914 654 921 c 0,73,74
 683 933 683 933 699 993 c 1,75,-1
 699 1169 l 1,76,-1
 42 1169 l 1,77,-1
 42 1325 l 1,78,-1
 1038 1325 l 1,79,-1
 1038 1169 l 1,0,-1
1540 1169 m 1,80,-1
 1384 1169 l 1,81,-1
 1383 44 l 2,82,83
 1383 1 1383 1 1372 -3 c 1,84,85
 1357 -3 1357 -3 1283 66 c 2,86,-1
 1228 117 l 2,87,88
 1206 137 1206 137 1202 170 c 1,89,-1
 1202 1169 l 1,90,-1
 1042 1169 l 1,91,-1
 1042 1325 l 1,92,-1
 1540 1325 l 1,93,-1
 1540 1169 l 1,80,-1
EndSplineSet
Fore
SplineSet
960 1384 m 1,0,-1
 1344 1384 l 1,1,-1
 1444 1384 l 1,2,-1
 1492 1376 l 1,3,-1
 1516 1344 l 1,4,-1
 1548 1272 l 1,5,-1
 1264 1272 l 1,6,-1
 1264 4 l 1,7,-1
 1184 60 l 1,8,-1
 1144 92 l 1,9,-1
 1136 184 l 1,10,-1
 1136 404 l 1,11,-1
 1136 1272 l 1,12,-1
 1056 1272 l 1,13,-1
 1016 1280 l 1,14,-1
 992 1312 l 1,15,-1
 960 1384 l 1,0,-1
40 1384 m 1,16,-1
 840 1384 l 1,17,-1
 1032 1384 l 1,18,-1
 1108 1376 l 1,19,-1
 1132 1344 l 1,20,-1
 1164 1272 l 1,21,-1
 292 1272 l 1,22,-1
 292 696 l 1,23,24
 468 872 468 872 692 1008 c 2,25,-1
 796 1068 l 1,26,-1
 812 1076 l 1,27,-1
 848 1092 l 2,28,29
 860 1096 860 1096 880 1076 c 2,30,-1
 888 1068 l 1,31,-1
 920 1036 l 1,32,-1
 948 1004 l 1,33,-1
 976 964 l 2,34,35
 984 944 984 944 964 920 c 2,36,-1
 948 888 l 1,37,-1
 932 856 l 2,38,39
 884 748 884 748 864 616 c 0,40,41
 832 372 832 372 916 156 c 2,42,-1
 948 80 l 1,43,-1
 952 68 l 1,44,-1
 984 4 l 1,45,-1
 916 40 l 1,46,-1
 876 92 l 1,47,-1
 820 200 l 2,48,49
 724 400 724 400 752 828 c 1,50,-1
 732 672 l 1,51,-1
 752 828 l 1,52,53
 528 664 528 664 408 544 c 2,54,-1
 368 500 l 1,55,-1
 328 456 l 1,56,-1
 316 444 l 1,57,-1
 292 428 l 1,58,-1
 260 448 l 1,59,-1
 248 464 l 1,60,-1
 224 492 l 2,61,62
 176 540 176 540 168 588 c 0,63,64
 160 736 160 736 168 1044 c 2,65,-1
 168 1272 l 1,66,-1
 96 1276 l 1,67,-1
 72 1312 l 1,68,-1
 40 1384 l 1,16,-1
EndSplineSet
EndChar

StartChar: backslash
Encoding: 92 92 63
Width: 3164
Flags: W
LayerCount: 2
Back
SplineSet
2740 1170 m 1,0,-1
 2472 1170 l 1,1,2
 2472 1140 2472 1140 2474 1109 c 0,3,4
 2476 1087 2476 1087 2480 1029 c 2,5,-1
 2489 890 l 2,6,7
 2491 859 2491 859 2491 840 c 0,8,9
 2491 647 2491 647 2395 508 c 0,10,11
 2356 451 2356 451 2356 403 c 0,12,13
 2356 364 2356 364 2381 337 c 0,14,15
 2456 254 2456 254 2528 205 c 2,16,-1
 2687 96 l 2,17,18
 2740 60 2740 60 2740 0 c 0,19,20
 2740 -49 2740 -49 2699 -49 c 0,21,22
 2673 -49 2673 -49 2643 -24 c 2,23,-1
 2466 123 l 1,24,-1
 2293 275 l 2,25,26
 2222 337 2222 337 2131 449 c 0,27,28
 2120 462 2120 462 2085 511 c 0,29,30
 2048 557 2048 557 1986 657 c 0,31,32
 1978 674 1978 674 1973 690 c 2,33,-1
 1964 748 l 1,34,35
 1964 860 1964 860 2050 860 c 0,36,37
 2078 860 2078 860 2135 834.5 c 128,-1,38
 2192 809 2192 809 2221 809 c 0,39,40
 2245 809 2245 809 2260 817 c 1,41,42
 2303 880 2303 880 2303 995 c 0,43,44
 2303 1062 2303 1062 2293 1116 c 0,45,46
 2291 1145 2291 1145 2283 1170 c 1,47,-1
 1905 1170 l 1,48,-1
 1905 1326 l 1,49,-1
 2740 1326 l 1,50,-1
 2740 1170 l 1,0,-1
1896 1170 m 1,51,-1
 1720 1170 l 1,52,53
 1707 1137 1707 1137 1707 1110 c 0,54,55
 1707 1084 1707 1084 1725 988 c 0,56,57
 1736 930 1736 930 1736 900 c 2,58,-1
 1736 870 l 1,59,60
 1731 840 1731 840 1709 774 c 1,61,62
 1691 767 1691 767 1654 768 c 2,63,-1
 1493 772 l 2,64,65
 1260 778 1260 778 1173 675 c 0,66,67
 1109 599 1109 599 1109 510 c 0,68,69
 1109 416 1109 416 1171.5 348.5 c 128,-1,70
 1234 281 1234 281 1328 281 c 1,71,-1
 1379 286 l 2,72,73
 1408 292 1408 292 1434 307 c 0,74,75
 1447 317 1447 317 1446 346 c 2,76,-1
 1444 401 l 2,77,78
 1440 522 1440 522 1583 545 c 1,79,80
 1651 545 1651 545 1714.5 483 c 128,-1,81
 1778 421 1778 421 1778 353 c 0,82,83
 1778 318 1778 318 1763 286 c 0,84,85
 1757 272 1757 272 1716 232 c 0,86,87
 1679 196 1679 196 1679 183 c 1,88,-1
 1693 152 l 1,89,90
 1720 112 1720 112 1798 17 c 0,91,92
 1911 -121 1911 -121 1911 -188 c 0,93,94
 1911 -226 1911 -226 1882 -263 c 0,95,96
 1865 -279 1865 -279 1840 -279 c 0,97,98
 1797 -279 1797 -279 1730 -238 c 0,99,100
 1658 -194 1658 -194 1658 -155 c 0,101,102
 1658 -125 1658 -125 1686.5 -100 c 128,-1,103
 1715 -75 1715 -75 1718 -59 c 0,104,105
 1718 -15 1718 -15 1620 121 c 1,106,-1
 1602 140 l 2,107,108
 1587 152 1587 152 1562 156 c 1,109,-1
 1537 152 l 1,110,-1
 1477 147 l 2,111,112
 1465 146 1465 146 1451 146 c 0,113,114
 1311 146 1311 146 1148 275 c 0,115,116
 975 412 975 412 953 610 c 1,117,118
 953 764 953 764 1061 845 c 0,119,120
 1158 919 1158 919 1317 917 c 2,121,-1
 1420 916 l 2,122,123
 1496 915 1496 915 1512 922 c 0,124,125
 1541 934 1541 934 1557 994 c 1,126,-1
 1557 1170 l 1,127,-1
 900 1170 l 1,128,-1
 900 1326 l 1,129,-1
 1896 1326 l 1,130,-1
 1896 1170 l 1,51,-1
1508 1506 m 2,131,132
 1573 1438 1573 1438 1573 1396 c 0,133,134
 1573 1368 1573 1368 1548 1367 c 0,135,136
 1529 1366 1529 1366 1414 1488 c 0,137,138
 1287 1622 1287 1622 1261 1641 c 0,139,140
 1120 1740 1120 1740 975 1740 c 0,141,142
 860 1740 860 1740 790.5 1664.5 c 128,-1,143
 721 1589 721 1589 721 1472 c 0,144,145
 721 1371 721 1371 686 1371 c 0,146,147
 646 1371 646 1371 575 1493 c 0,148,149
 544 1546 544 1546 544 1607 c 0,150,151
 544 1727 544 1727 639.5 1817 c 128,-1,152
 735 1907 735 1907 856 1907 c 0,153,154
 868 1907 868 1907 881 1906 c 2,155,-1
 931 1902 l 2,156,157
 1144 1885 1144 1885 1292 1731 c 2,158,-1
 1508 1506 l 2,131,132
892 1169 m 1,159,-1
 742 1169 l 1,160,-1
 742 41 l 2,161,162
 742 5 742 5 715 1 c 0,163,164
 697 0 697 0 629 68 c 1,165,166
 575 116 575 116 574 155 c 2,167,-1
 575 1169 l 1,168,-1
 424 1169 l 1,169,-1
 424 1325 l 1,170,-1
 892 1325 l 1,171,-1
 892 1169 l 1,159,-1
2722 -1200 m 1,172,-1
 2769 -1200 l 1,173,174
 2672 -1350 2672 -1350 2542 -1451 c 0,175,176
 2357 -1594 2357 -1594 2105.5 -1672 c 128,-1,177
 1854 -1750 1854 -1750 1584 -1750 c 0,178,179
 1189 -1750 1189 -1750 863 -1597.5 c 128,-1,180
 537 -1445 537 -1445 396 -1200 c 1,181,-1
 450 -1200 l 1,182,183
 537 -1322 537 -1322 687.5 -1400.5 c 128,-1,184
 838 -1479 838 -1479 1069 -1518 c 128,-1,185
 1300 -1557 1300 -1557 1551 -1557 c 0,186,187
 1824 -1557 1824 -1557 2047 -1524 c 0,188,189
 2223 -1498 2223 -1498 2329.5 -1461.5 c 128,-1,190
 2436 -1425 2436 -1425 2534 -1362.5 c 128,-1,191
 2632 -1300 2632 -1300 2722 -1200 c 1,172,-1
EndSplineSet
Fore
SplineSet
1720 1384 m 5,0,-1
 2520 1384 l 5,1,-1
 2712 1384 l 5,2,-1
 2788 1376 l 5,3,-1
 2812 1344 l 5,4,-1
 2844 1272 l 5,5,-1
 2664 1272 l 5,6,-1
 2664 4 l 5,7,-1
 2648 12 l 6,8,9
 2620 28 2620 28 2608 48 c 6,10,-1
 2604 64 l 5,11,-1
 2600 80 l 5,12,-1
 2596 96 l 5,13,-1
 2572 176 l 6,14,15
 2544 260 2544 260 2456 352 c 4,16,17
 2320 492 2320 492 2128 584 c 5,18,-1
 1992 632 l 5,19,-1
 1964 640 l 5,20,-1
 1960 640 l 5,21,-1
 1956 640 l 5,22,-1
 1952 644 l 5,23,-1
 1912 656 l 5,24,-1
 1888 688 l 5,25,-1
 1872 708 l 5,26,-1
 1852 740 l 5,27,-1
 1812 808 l 5,28,29
 2072 976 2072 976 2244 1060 c 6,30,-1
 2432 1136 l 5,31,-1
 2464 1148 l 5,32,-1
 2480 1152 l 5,33,-1
 2528 1172 l 6,34,35
 2544 1184 2544 1184 2544 1228 c 6,36,-1
 2544 1232 l 5,37,-1
 2544 1236 l 5,38,-1
 2544 1240 l 5,39,-1
 2540 1248 l 5,40,-1
 2540 1272 l 5,41,-1
 1996 1272 l 5,42,-1
 1844 1272 l 5,43,-1
 1776 1276 l 5,44,-1
 1752 1312 l 5,45,-1
 1720 1384 l 5,0,-1
2032 764 m 5,46,47
 2096 752 2096 752 2188 688 c 4,48,49
 2276 636 2276 636 2364 552 c 260,50,51
 2452 468 2452 468 2540 352 c 5,52,-1
 2540 1016 l 5,53,54
 2344 948 2344 948 2176 852 c 6,55,-1
 2128 828 l 5,56,-1
 2072 796 l 5,57,-1
 2032 764 l 5,46,47
2040 392 m 6,58,-1
 2064 396 l 5,59,-1
 2092 392 l 6,60,61
 2172 376 2172 376 2180 280 c 4,62,63
 2180 188 2180 188 2088 168 c 6,64,-1
 2064 164 l 5,65,-1
 2036 168 l 6,66,67
 1956 184 1956 184 1948 280 c 4,68,69
 1948 372 1948 372 2040 392 c 6,58,-1
436 1388 m 5,70,-1
 360 1456 l 5,71,-1
 336 1480 l 6,72,73
 296 1528 296 1528 264 1588 c 5,74,-1
 248 1656 l 6,75,76
 220 1812 220 1812 436 1932 c 6,77,-1
 480 1956 l 5,78,-1
 512 1968 l 5,79,-1
 544 1980 l 5,80,-1
 648 2012 l 6,81,82
 736 2036 736 2036 824 2040 c 4,83,84
 924 2048 924 2048 992 2036 c 4,85,86
 1212 2008 1212 2008 1452 1848 c 4,87,88
 1612 1736 1612 1736 1696 1628 c 6,89,-1
 1740 1564 l 5,90,-1
 1744 1556 l 5,91,-1
 1748 1552 l 5,92,-1
 1748 1536 l 5,93,-1
 1732 1528 l 5,94,-1
 1724 1532 l 5,95,-1
 1688 1556 l 5,96,-1
 1676 1568 l 5,97,-1
 1644 1608 l 5,98,-1
 1636 1620 l 5,99,-1
 1616 1648 l 6,100,101
 1556 1716 1556 1716 1492 1752 c 4,102,103
 1280 1912 1280 1912 1024 1936 c 5,104,-1
 884 1932 l 6,105,106
 748 1920 748 1920 616 1868 c 4,107,108
 464 1816 464 1816 388 1708 c 4,109,110
 344 1656 344 1656 352 1600 c 6,111,-1
 352 1596 l 6,112,113
 352 1556 352 1556 372 1524 c 260,114,115
 392 1492 392 1492 468 1420 c 4,116,117
 496 1392 496 1392 528 1384 c 4,118,119
 544 1376 544 1376 576 1384 c 6,120,-1
 600 1384 l 5,121,-1
 732 1384 l 5,122,-1
 752 1384 l 5,123,-1
 768 1384 l 5,124,-1
 772 1384 l 5,125,-1
 800 1380 l 5,126,-1
 812 1376 l 5,127,-1
 828 1356 l 5,128,-1
 832 1352 l 5,129,-1
 836 1344 l 5,130,-1
 852 1308 l 5,131,-1
 868 1272 l 5,132,-1
 612 1272 l 5,133,-1
 612 4 l 5,134,-1
 532 60 l 5,135,-1
 492 92 l 5,136,-1
 484 184 l 5,137,-1
 484 404 l 5,138,-1
 484 1272 l 5,139,-1
 384 1272 l 5,140,-1
 336 1280 l 5,141,-1
 312 1312 l 5,142,-1
 280 1384 l 5,143,-1
 436 1384 l 5,144,-1
 436 1388 l 5,70,-1
720 1384 m 5,145,-1
 1520 1384 l 5,146,-1
 1712 1384 l 5,147,-1
 1788 1376 l 5,148,-1
 1812 1344 l 5,149,-1
 1844 1272 l 5,150,-1
 972 1272 l 5,151,-1
 972 696 l 5,152,153
 1148 872 1148 872 1372 1008 c 6,154,-1
 1476 1068 l 5,155,-1
 1492 1076 l 5,156,-1
 1528 1092 l 6,157,158
 1540 1096 1540 1096 1560 1076 c 6,159,-1
 1568 1068 l 5,160,-1
 1600 1036 l 5,161,-1
 1628 1004 l 5,162,-1
 1656 964 l 6,163,164
 1664 944 1664 944 1644 920 c 6,165,-1
 1628 888 l 5,166,-1
 1612 856 l 6,167,168
 1564 748 1564 748 1544 616 c 4,169,170
 1512 372 1512 372 1596 156 c 6,171,-1
 1628 80 l 5,172,-1
 1632 68 l 5,173,-1
 1664 4 l 5,174,-1
 1596 40 l 5,175,-1
 1556 92 l 5,176,-1
 1500 200 l 6,177,178
 1404 400 1404 400 1432 828 c 5,179,-1
 1412 672 l 5,180,-1
 1432 828 l 5,181,182
 1208 664 1208 664 1088 544 c 6,183,-1
 1048 500 l 5,184,-1
 1008 456 l 5,185,-1
 996 444 l 5,186,-1
 972 428 l 5,187,-1
 940 448 l 5,188,-1
 928 464 l 5,189,-1
 904 492 l 6,190,191
 856 540 856 540 848 588 c 4,192,193
 840 736 840 736 848 1044 c 6,194,-1
 848 1272 l 5,195,-1
 776 1276 l 5,196,-1
 752 1312 l 5,197,-1
 720 1384 l 5,145,-1
2722 -1200 m 1,198,-1
 2769 -1200 l 1,199,200
 2672 -1350 2672 -1350 2542 -1451 c 0,201,202
 2357 -1594 2357 -1594 2105.5 -1672 c 128,-1,203
 1854 -1750 1854 -1750 1584 -1750 c 0,204,205
 1189 -1750 1189 -1750 863 -1597.5 c 128,-1,206
 537 -1445 537 -1445 396 -1200 c 1,207,-1
 450 -1200 l 1,208,209
 537 -1322 537 -1322 687.5 -1400.5 c 128,-1,210
 838 -1479 838 -1479 1069 -1518 c 128,-1,211
 1300 -1557 1300 -1557 1551 -1557 c 0,212,213
 1824 -1557 1824 -1557 2047 -1524 c 0,214,215
 2223 -1498 2223 -1498 2329.5 -1461.5 c 128,-1,216
 2436 -1425 2436 -1425 2534 -1362.5 c 128,-1,217
 2632 -1300 2632 -1300 2722 -1200 c 1,198,-1
EndSplineSet
EndChar

StartChar: bracketright
Encoding: 93 93 64
Width: 1582
VWidth: 575
Flags: W
LayerCount: 2
Back
SplineSet
957 1169 m 1,0,-1
 689 1169 l 1,1,2
 689 1139 689 1139 691 1108 c 0,3,4
 693 1086 693 1086 697 1028 c 2,5,-1
 706 889 l 2,6,7
 708 858 708 858 708 839 c 0,8,9
 708 646 708 646 612 507 c 0,10,11
 573 450 573 450 573 402 c 0,12,13
 573 363 573 363 598 336 c 0,14,15
 673 253 673 253 745 204 c 2,16,-1
 904 95 l 2,17,18
 957 59 957 59 957 -1 c 0,19,20
 957 -50 957 -50 916 -50 c 0,21,22
 890 -50 890 -50 860 -25 c 2,23,-1
 683 122 l 1,24,-1
 510 274 l 2,25,26
 439 336 439 336 348 448 c 0,27,28
 337 461 337 461 302 510 c 0,29,30
 265 556 265 556 203 656 c 0,31,32
 195 673 195 673 190 689 c 2,33,-1
 181 747 l 1,34,35
 181 859 181 859 267 859 c 0,36,37
 295 859 295 859 352 833.5 c 128,-1,38
 409 808 409 808 438 808 c 0,39,40
 462 808 462 808 477 816 c 1,41,42
 520 879 520 879 520 994 c 0,43,44
 520 1061 520 1061 510 1115 c 0,45,46
 508 1144 508 1144 500 1169 c 1,47,-1
 122 1169 l 1,48,-1
 122 1325 l 1,49,-1
 957 1325 l 1,50,-1
 957 1169 l 1,0,-1
1460 1169 m 1,51,-1
 1304 1169 l 1,52,-1
 1303 44 l 2,53,54
 1303 1 1303 1 1292 -3 c 1,55,56
 1277 -3 1277 -3 1203 66 c 2,57,-1
 1148 117 l 2,58,59
 1126 137 1126 137 1122 170 c 1,60,-1
 1122 1169 l 1,61,-1
 962 1169 l 1,62,-1
 962 1325 l 1,63,-1
 1460 1325 l 1,64,-1
 1460 1169 l 1,51,-1
EndSplineSet
Fore
SplineSet
1000 1384 m 1,0,-1
 1384 1384 l 1,1,-1
 1484 1384 l 1,2,-1
 1532 1376 l 1,3,-1
 1556 1344 l 1,4,-1
 1588 1272 l 1,5,-1
 1304 1272 l 1,6,-1
 1304 4 l 1,7,-1
 1224 60 l 1,8,-1
 1184 92 l 1,9,-1
 1176 184 l 1,10,-1
 1176 404 l 1,11,-1
 1176 1272 l 1,12,-1
 1096 1272 l 1,13,-1
 1056 1280 l 1,14,-1
 1032 1312 l 1,15,-1
 1000 1384 l 1,0,-1
0 1384 m 1,16,-1
 800 1384 l 1,17,-1
 992 1384 l 1,18,-1
 1068 1376 l 1,19,-1
 1092 1344 l 1,20,-1
 1124 1272 l 1,21,-1
 944 1272 l 1,22,-1
 944 4 l 1,23,-1
 928 12 l 2,24,25
 900 28 900 28 888 48 c 2,26,-1
 884 64 l 1,27,-1
 880 80 l 1,28,-1
 876 96 l 1,29,-1
 852 176 l 2,30,31
 824 260 824 260 736 352 c 0,32,33
 600 492 600 492 408 584 c 1,34,-1
 272 632 l 1,35,-1
 244 640 l 1,36,-1
 240 640 l 1,37,-1
 236 640 l 1,38,-1
 232 644 l 1,39,-1
 192 656 l 1,40,-1
 168 688 l 1,41,-1
 152 708 l 1,42,-1
 132 740 l 1,43,-1
 92 808 l 1,44,45
 352 976 352 976 524 1060 c 2,46,-1
 712 1136 l 1,47,-1
 744 1148 l 1,48,-1
 760 1152 l 1,49,-1
 808 1172 l 2,50,51
 824 1184 824 1184 824 1228 c 2,52,-1
 824 1232 l 1,53,-1
 824 1236 l 1,54,-1
 824 1240 l 1,55,-1
 820 1248 l 1,56,-1
 820 1272 l 1,57,-1
 276 1272 l 1,58,-1
 124 1272 l 1,59,-1
 56 1276 l 1,60,-1
 32 1312 l 1,61,-1
 0 1384 l 1,16,-1
312 764 m 1,62,63
 376 752 376 752 468 688 c 0,64,65
 556 636 556 636 644 552 c 256,66,67
 732 468 732 468 820 352 c 1,68,-1
 820 1016 l 1,69,70
 624 948 624 948 456 852 c 2,71,-1
 408 828 l 1,72,-1
 352 796 l 1,73,-1
 312 764 l 1,62,63
320 392 m 2,74,-1
 344 396 l 1,75,-1
 372 392 l 2,76,77
 452 376 452 376 460 280 c 0,78,79
 460 188 460 188 368 168 c 2,80,-1
 344 164 l 1,81,-1
 316 168 l 2,82,83
 236 184 236 184 228 280 c 0,84,85
 228 372 228 372 320 392 c 2,74,-1
EndSplineSet
EndChar

StartChar: asciicircum
Encoding: 94 94 65
Width: 7
Flags: W
LayerCount: 2
Fore
SplineSet
8925 -1200 m 1,0,-1
 9097 -1200 l 1,1,2
 8741 -1391 8741 -1391 8265 -1519 c 0,3,4
 7586 -1702 7586 -1702 6664 -1801 c 128,-1,5
 5742 -1900 5742 -1900 4752 -1900 c 0,6,7
 3304 -1900 3304 -1900 2108.5 -1705.5 c 128,-1,8
 913 -1511 913 -1511 396 -1200 c 1,9,-1
 594 -1200 l 1,10,11
 913 -1355 913 -1355 1465 -1455.5 c 128,-1,12
 2017 -1556 2017 -1556 2864 -1605.5 c 128,-1,13
 3711 -1655 3711 -1655 4631 -1655 c 0,14,15
 5632 -1655 5632 -1655 6450 -1613 c 0,16,17
 7095 -1580 7095 -1580 7485.5 -1533 c 128,-1,18
 7876 -1486 7876 -1486 8235.5 -1407 c 128,-1,19
 8595 -1328 8595 -1328 8925 -1200 c 1,0,-1
EndSplineSet
Validated: 1
EndChar

StartChar: underscore
Encoding: 95 95 66
Width: 1582
Flags: W
LayerCount: 2
Fore
SplineSet
-72 440 m 1,0,-1
 -103 451 l 1,1,-1
 63 588 l 1,2,-1
 1688 588 l 1,3,-1
 1718 578 l 1,4,-1
 1534 440 l 1,5,-1
 -72 440 l 1,0,-1
EndSplineSet
Validated: 1
EndChar

StartChar: grave
Encoding: 96 96 67
Width: 0
Flags: W
LayerCount: 2
Fore
SplineSet
5823 -2000 m 1,0,-1
 5933 -2000 l 1,1,2
 5707 -2242 5707 -2242 5403 -2407 c 0,3,4
 4972 -2640 4972 -2640 4385 -2766.5 c 128,-1,5
 3798 -2893 3798 -2893 3168 -2893 c 0,6,7
 2246 -2893 2246 -2893 1485.5 -2645 c 128,-1,8
 725 -2397 725 -2397 396 -2000 c 1,9,-1
 522 -2000 l 1,10,11
 725 -2198 725 -2198 1076 -2326 c 128,-1,12
 1427 -2454 1427 -2454 1966 -2517 c 128,-1,13
 2505 -2580 2505 -2580 3091 -2580 c 0,14,15
 3728 -2580 3728 -2580 4248 -2527 c 0,16,17
 4659 -2484 4659 -2484 4907.5 -2424 c 128,-1,18
 5156 -2364 5156 -2364 5384.5 -2263 c 128,-1,19
 5613 -2162 5613 -2162 5823 -2000 c 1,0,-1
EndSplineSet
Validated: 1
EndChar

StartChar: d
Encoding: 100 100 71
Width: 1582
VWidth: 575
Flags: W
LayerCount: 2
Back
SplineSet
1381 1169 m 1,0,-1
 1265 1169 l 1,1,-1
 1265 68 l 2,2,3
 1265 -3 1265 -3 1252 -3 c 0,4,5
 1238 -3 1238 -3 1152 79 c 0,6,7
 1094 134 1094 134 1081 169 c 1,8,9
 1072 206 1072 206 1072 358 c 1,10,-1
 965 304 l 2,11,12
 884 263 884 263 795 263 c 0,13,14
 696 263 696 263 632 293 c 0,15,16
 575 319 575 319 499 394 c 0,17,18
 383 507 383 507 383 639 c 0,19,20
 383 696 383 696 414 731 c 2,21,-1
 476 801 l 1,22,23
 460 829 460 829 422 858 c 1,24,-1
 376 885 l 2,25,26
 354 898 354 898 345 906 c 0,27,28
 310 929 310 929 292 981 c 1,29,30
 280 1046 280 1046 280 1101 c 2,31,-1
 280 1123 l 2,32,33
 280 1169 280 1169 201 1169 c 1,34,-1
 201 1325 l 1,35,-1
 433 1325 l 1,36,-1
 528 1169 l 1,37,-1
 483 1169 l 1,38,-1
 454 1078 l 2,39,40
 445 1049 445 1049 445 1007 c 0,41,42
 445 911 445 911 538 838 c 1,43,44
 624 871 624 871 690 871 c 0,45,46
 758 871 758 871 808 811 c 2,47,-1
 837 776 l 2,48,49
 858 751 858 751 858 737 c 0,50,51
 858 711 858 711 792 711 c 0,52,53
 686 711 686 711 616 669 c 0,54,55
 532 618 532 618 532 519 c 0,56,57
 532 400 532 400 658 406 c 2,58,-1
 701 408 l 2,59,60
 818 413 818 413 940 486 c 0,61,62
 1045 549 1045 549 1092 622 c 1,63,-1
 1092 1169 l 1,64,-1
 744 1169 l 1,65,-1
 642 1325 l 1,66,-1
 1381 1325 l 1,67,-1
 1381 1169 l 1,0,-1
EndSplineSet
Fore
SplineSet
1030 1508 m 5,0,-1
 1154 1392 l 5,1,-1
 1278 1380 l 5,2,-1
 1298 1348 l 5,3,-1
 1334 1272 l 5,4,-1
 1154 1272 l 5,5,-1
 1154 4 l 5,6,-1
 1138 12 l 6,7,8
 1110 28 1110 28 1098 48 c 6,9,-1
 1094 64 l 5,10,-1
 1090 80 l 5,11,-1
 1086 96 l 5,12,-1
 1062 176 l 6,13,14
 1034 260 1034 260 946 352 c 4,15,16
 810 492 810 492 618 584 c 5,17,-1
 482 632 l 5,18,-1
 454 640 l 5,19,-1
 450 640 l 5,20,-1
 446 640 l 5,21,-1
 442 644 l 5,22,-1
 402 656 l 5,23,-1
 378 688 l 5,24,-1
 362 708 l 5,25,-1
 342 740 l 5,26,-1
 302 808 l 5,27,-1
 466 916 l 5,28,-1
 562 968 l 5,29,-1
 562 972 l 5,30,31
 434 976 434 976 406 1116 c 5,32,-1
 406 1120 l 5,33,-1
 402 1172 l 5,34,-1
 402 1180 l 5,35,-1
 402 1192 l 5,36,37
 422 1348 422 1348 554 1404 c 5,38,-1
 606 1416 l 5,39,-1
 638 1416 l 6,40,41
 702 1408 702 1408 734 1384 c 4,42,43
 798 1340 798 1340 790 1268 c 4,44,45
 790 1232 790 1232 766 1200 c 4,46,47
 734 1160 734 1160 674 1160 c 4,48,49
 626 1160 626 1160 590 1196 c 4,50,51
 562 1224 562 1224 562 1284 c 5,52,-1
 518 1244 l 5,53,54
 458 1156 458 1156 562 1088 c 6,55,-1
 602 1064 l 6,56,57
 658 1040 658 1040 694 1044 c 6,58,-1
 742 1060 l 5,59,-1
 778 1076 l 5,60,-1
 850 1104 l 5,61,-1
 918 1132 l 5,62,-1
 954 1148 l 5,63,-1
 994 1160 l 5,64,-1
 1026 1180 l 5,65,-1
 1034 1232 l 5,66,-1
 1030 1252 l 5,67,-1
 1030 1280 l 5,68,-1
 1030 1508 l 5,0,-1
522 764 m 5,69,70
 586 752 586 752 678 688 c 4,71,72
 766 636 766 636 854 552 c 260,73,74
 942 468 942 468 1030 352 c 5,75,-1
 1030 1016 l 5,76,77
 834 948 834 948 666 852 c 6,78,-1
 618 828 l 5,79,-1
 562 796 l 5,80,-1
 522 764 l 5,69,70
EndSplineSet
EndChar

StartChar: e
Encoding: 101 101 72
Width: 0
Flags: W
LayerCount: 2
Fore
SplineSet
28 3643 m 0,0,1
 651 3643 651 3643 1108 3094 c 1,2,3
 1306 2811 1306 2811 1306 2509 c 1,4,-1
 1297 2500 l 1,5,-1
 1153 2500 l 2,6,7
 1137 2500 1137 2500 1108 2761 c 1,8,9
 1003 3063 1003 3063 775 3175 c 1,10,11
 486 3310 486 3310 10 3310 c 1,12,-1
 1 3319 l 1,13,-1
 1 3625 l 2,14,15
 1 3643 1 3643 28 3643 c 0,0,1
EndSplineSet
Validated: 1
EndChar

StartChar: g
Encoding: 103 103 74
Width: 1582
VWidth: 575
Flags: W
LayerCount: 2
Back
SplineSet
1398 1169 m 1,0,-1
 1292 1169 l 1,1,-1
 1292 59 l 2,2,3
 1292 -1 1292 -1 1263 -2 c 0,4,5
 1236 0 1236 0 1116 155 c 1,6,7
 1097 193 1097 193 1097 247 c 2,8,-1
 1097 1169 l 1,9,-1
 626 1169 l 1,10,-1
 687 891 l 2,11,12
 716 760 716 760 716 660 c 0,13,14
 716 525 716 525 651 445 c 0,15,16
 605 389 605 389 534 389 c 1,17,18
 433 400 433 400 341 528 c 0,19,20
 258 643 258 643 247 750 c 1,21,22
 247 830 247 830 301 830 c 0,23,24
 337 830 337 830 386 797 c 0,25,26
 420 774 420 774 443 774 c 0,27,28
 519 773 519 773 519 979 c 0,29,30
 519 1040 519 1040 510 1097 c 2,31,-1
 499 1169 l 1,32,-1
 187 1169 l 1,33,-1
 187 1325 l 1,34,-1
 1398 1325 l 1,35,-1
 1398 1169 l 1,0,-1
EndSplineSet
Fore
SplineSet
1097 1508 m 5,0,-1
 1221 1392 l 5,1,-1
 1345 1380 l 5,2,-1
 1365 1348 l 5,3,-1
 1401 1272 l 5,4,-1
 1221 1272 l 5,5,-1
 1221 4 l 5,6,-1
 1181 32 l 5,7,-1
 1141 60 l 5,8,-1
 1129 72 l 5,9,-1
 1125 72 l 5,10,-1
 1121 76 l 5,11,-1
 1101 96 l 5,12,-1
 1097 128 l 5,13,-1
 1097 148 l 5,14,-1
 1097 164 l 5,15,-1
 1097 300 l 5,16,-1
 1097 792 l 5,17,-1
 1097 928 l 5,18,-1
 1097 948 l 5,19,-1
 1097 952 l 5,20,-1
 1097 956 l 5,21,-1
 1093 1000 l 6,22,23
 1089 1028 1089 1028 1045 1064 c 6,24,-1
 1025 1084 l 5,25,-1
 965 1140 l 5,26,-1
 925 1176 l 5,27,28
 749 1312 749 1312 637 1284 c 6,29,-1
 601 1272 l 5,30,-1
 553 1244 l 5,31,-1
 533 1224 l 5,32,-1
 505 1184 l 5,33,-1
 481 1120 l 5,34,-1
 477 1088 l 5,35,36
 561 1112 561 1112 649 1112 c 6,37,-1
 745 1096 l 5,38,-1
 809 1060 l 5,39,-1
 849 1016 l 6,40,41
 893 948 893 948 881 868 c 4,42,43
 869 780 869 780 805 676 c 4,44,45
 773 616 773 616 717 556 c 6,46,-1
 705 544 l 5,47,-1
 701 540 l 5,48,-1
 685 528 l 5,49,-1
 669 524 l 6,50,51
 657 516 657 516 637 536 c 6,52,-1
 629 540 l 5,53,-1
 557 588 l 5,54,-1
 557 592 l 5,55,56
 689 724 689 724 741 852 c 6,57,-1
 749 872 l 5,58,-1
 761 912 l 6,59,60
 769 952 769 952 757 972 c 4,61,62
 729 1032 729 1032 641 1016 c 6,63,-1
 577 992 l 5,64,-1
 573 992 l 5,65,-1
 569 988 l 5,66,-1
 549 980 l 5,67,-1
 509 956 l 5,68,-1
 485 944 l 5,69,-1
 457 932 l 5,70,-1
 437 924 l 5,71,-1
 405 916 l 5,72,-1
 365 920 l 5,73,-1
 349 944 l 5,74,-1
 341 956 l 5,75,-1
 317 1044 l 5,76,-1
 313 1104 l 5,77,78
 329 1272 329 1272 525 1352 c 4,79,80
 573 1372 573 1372 721 1384 c 6,81,-1
 625 1380 l 5,82,-1
 721 1384 l 6,83,84
 777 1376 777 1376 845 1340 c 4,85,86
 953 1288 953 1288 1097 1136 c 5,87,-1
 1097 1508 l 5,0,-1
EndSplineSet
EndChar

StartChar: l
Encoding: 108 108 79
Width: 0
Flags: W
LayerCount: 2
Fore
SplineSet
-643 -824 m 1,0,-1
 -707 -902 l 1,1,-1
 -759 -960 l 1,2,3
 -781 -972 -781 -972 -793 -972 c 0,4,5
 -809 -972 -809 -972 -877 -892 c 2,6,-1
 -940 -820 l 1,7,-1
 -940 -783 l 1,8,-1
 -865 -681 l 2,9,10
 -837 -643 -837 -643 -809 -627 c 1,11,12
 -781 -627 -781 -627 -643 -783 c 1,13,-1
 -641 -804 l 1,14,-1
 -643 -824 l 1,0,-1
EndSplineSet
Validated: 1
EndChar

StartChar: m
Encoding: 109 109 80
Width: 1582
VWidth: 575
Flags: W
LayerCount: 2
Back
SplineSet
1395 1169 m 1,0,-1
 1254 1169 l 1,1,-1
 1254 56 l 1,2,3
 1258 -6 1258 -6 1231 0 c 1,4,5
 1206 -6 1206 -6 1138.5 67 c 128,-1,6
 1071 140 1071 140 1063 176 c 1,7,-1
 1063 529 l 1,8,-1
 660 529 l 1,9,10
 625 512 625 512 628 480 c 2,11,-1
 632 432 l 1,12,-1
 632 407 l 2,13,14
 632 390 632 390 628 372 c 1,15,16
 628 347 628 347 597 330 c 0,17,18
 570 315 570 315 543 315 c 0,19,20
 489 315 489 315 432 379 c 2,21,-1
 341 482 l 1,22,23
 252 557 252 557 252 626 c 0,24,25
 252 712 252 712 339 712 c 2,26,-1
 377 712 l 1,27,-1
 406 714 l 1,28,-1
 435 724 l 1,29,-1
 435 1169 l 1,30,-1
 190 1169 l 1,31,-1
 190 1325 l 1,32,-1
 1395 1325 l 1,33,-1
 1395 1169 l 1,0,-1
1069 707 m 1,34,-1
 1069 1170 l 1,35,-1
 619 1170 l 1,36,-1
 619 707 l 1,37,-1
 1069 707 l 1,34,-1
EndSplineSet
Fore
SplineSet
174 1384 m 5,0,-1
 1070 1384 l 5,1,-1
 1274 1384 l 5,2,-1
 1358 1376 l 5,3,-1
 1382 1344 l 5,4,-1
 1414 1272 l 5,5,-1
 1234 1272 l 5,6,-1
 1234 4 l 5,7,-1
 1218 12 l 6,8,9
 1190 28 1190 28 1178 48 c 6,10,-1
 1166 84 l 5,11,-1
 1166 104 l 5,12,-1
 1162 120 l 5,13,-1
 1150 160 l 5,14,-1
 1118 240 l 5,15,16
 1030 400 1030 400 842 516 c 5,17,18
 810 444 810 444 762 404 c 4,19,20
 722 372 722 372 674 360 c 6,21,-1
 590 352 l 5,22,23
 450 372 450 372 402 504 c 4,24,25
 382 552 382 552 390 600 c 4,26,27
 394 664 394 664 430 716 c 4,28,29
 446 740 446 740 494 776 c 4,30,31
 542 808 542 808 594 812 c 4,32,33
 642 816 642 816 706 800 c 5,34,-1
 710 800 l 5,35,-1
 714 796 l 5,36,-1
 762 784 l 5,37,-1
 766 808 l 5,38,-1
 770 840 l 5,39,-1
 766 900 l 6,40,41
 750 968 750 968 666 1024 c 6,42,-1
 514 1100 l 5,43,-1
 438 1132 l 6,44,45
 378 1160 378 1160 330 1208 c 6,46,-1
 318 1224 l 5,47,-1
 318 1228 l 5,48,-1
 314 1236 l 5,49,-1
 294 1260 l 5,50,-1
 262 1272 l 5,51,-1
 262 1272 l 5,52,-1
 230 1280 l 5,53,-1
 210 1304 l 5,54,-1
 206 1312 l 5,55,-1
 190 1348 l 5,56,-1
 174 1384 l 5,0,-1
566 1268 m 5,57,58
 606 1244 606 1244 666 1180 c 5,59,-1
 670 1172 l 5,60,-1
 686 1156 l 6,61,62
 818 1008 818 1008 874 852 c 6,63,-1
 898 760 l 5,64,-1
 898 748 l 5,65,-1
 906 700 l 5,66,-1
 926 676 l 5,67,-1
 930 672 l 5,68,-1
 938 664 l 5,69,-1
 986 612 l 6,70,71
 1034 564 1034 564 1082 484 c 6,72,-1
 1110 440 l 5,73,-1
 1110 1272 l 5,74,-1
 566 1272 l 5,75,-1
 566 1268 l 5,57,58
EndSplineSet
EndChar

StartChar: n
Encoding: 110 110 81
Width: 1582
VWidth: 575
Flags: W
LayerCount: 2
Back
SplineSet
1101 1168 m 1,0,-1
 1012 1168 l 1,1,-1
 1012 75 l 2,2,3
 1013 1 1013 1 988 0 c 0,4,5
 962 0 962 0 891 73 c 1,6,-1
 840 130 l 2,7,8
 814 159 814 159 809 188 c 1,9,-1
 810 639 l 1,10,-1
 497 639 l 2,11,12
 462 639 462 639 432 614 c 0,13,14
 412 598 412 598 408 566 c 1,15,-1
 412 548 l 1,16,17
 442 455 442 455 442 401 c 0,18,19
 442 336 442 336 410 325 c 1,20,-1
 350 318 l 1,21,22
 290 318 290 318 231 364 c 1,23,-1
 166 428 l 2,24,25
 67 525 67 525 67 634 c 0,26,27
 67 816 67 816 332 808 c 1,28,-1
 831 807 l 1,29,-1
 831 1168 l 1,30,-1
 8 1168 l 1,31,-1
 8 1325 l 1,32,-1
 1101 1325 l 1,33,-1
 1101 1168 l 1,0,-1
1590 1170 m 1,34,-1
 1441 1170 l 1,35,-1
 1442 21 l 2,36,37
 1442 -6 1442 -6 1431 -6 c 0,38,39
 1422 -6 1422 -6 1402 9 c 2,40,-1
 1347 59 l 1,41,-1
 1293 113 l 2,42,43
 1270 136 1270 136 1265 167 c 1,44,-1
 1265 1170 l 1,45,-1
 1103 1170 l 1,46,-1
 1103 1326 l 1,47,-1
 1291 1326 l 1,48,-1
 1294 1366 l 2,49,50
 1299 1434 1299 1434 1260 1521 c 2,51,-1
 1219 1612 l 2,52,53
 1189 1678 1189 1678 1122.5 1722.5 c 128,-1,54
 1056 1767 1056 1767 984 1767 c 0,55,56
 953 1767 953 1767 925 1758 c 0,57,58
 777 1711 777 1711 785 1493 c 2,59,-1
 787 1440 l 2,60,61
 789 1395 789 1395 761 1395 c 0,62,63
 708 1394 708 1394 647 1498 c 0,64,65
 590 1595 590 1595 590 1654 c 0,66,67
 590 1743 590 1743 648 1829 c 0,68,69
 735 1957 735 1957 898 1957 c 0,70,71
 1083 1957 1083 1957 1195 1808 c 0,72,73
 1250 1734 1250 1734 1291 1643 c 0,74,75
 1326 1566 1326 1566 1386 1326 c 1,76,-1
 1590 1326 l 1,77,-1
 1590 1170 l 1,34,-1
EndSplineSet
Fore
SplineSet
1303 1272 m 5,0,-1
 1047 1272 l 5,1,-1
 1027 1272 l 5,2,-1
 1003 1272 l 6,3,4
 967 1272 967 1272 955 1284 c 6,5,-1
 943 1296 l 5,6,-1
 935 1312 l 5,7,-1
 923 1332 l 6,8,9
 907 1356 907 1356 911 1372 c 4,10,11
 911 1384 911 1384 919 1404 c 6,12,-1
 923 1420 l 5,13,-1
 927 1440 l 6,14,15
 927 1476 927 1476 899 1500 c 4,16,17
 867 1524 867 1524 811 1544 c 4,18,19
 795 1548 795 1548 767 1556 c 4,20,21
 703 1572 703 1572 591 1580 c 6,22,-1
 587 1580 l 5,23,-1
 571 1580 l 6,24,25
 343 1592 343 1592 251 1668 c 4,26,27
 211 1704 211 1704 183 1740 c 4,28,29
 167 1768 167 1768 159 1800 c 4,30,31
 119 1948 119 1948 295 2032 c 5,32,-1
 343 2048 l 5,33,-1
 351 2052 l 5,34,35
 463 2080 463 2080 595 2068 c 4,36,37
 967 2044 967 2044 1219 1768 c 4,38,39
 1235 1748 1235 1748 1251 1732 c 4,40,41
 1391 1560 1391 1560 1411 1384 c 5,42,-1
 1507 1384 l 5,43,-1
 1551 1376 l 5,44,-1
 1575 1344 l 5,45,-1
 1607 1272 l 5,46,-1
 1427 1272 l 5,47,-1
 1427 4 l 5,48,-1
 1347 60 l 5,49,-1
 1311 92 l 5,50,-1
 1303 184 l 5,51,-1
 1303 404 l 5,52,-1
 1303 1272 l 5,0,-1
1315 1384 m 5,53,54
 1315 1448 1315 1448 1295 1528 c 4,55,56
 1215 1808 1215 1808 887 1920 c 4,57,58
 803 1952 803 1952 711 1964 c 4,59,60
 703 1964 703 1964 695 1964 c 6,61,-1
 579 1968 l 6,62,63
 447 1964 447 1964 359 1916 c 4,64,65
 259 1856 259 1856 255 1764 c 4,66,67
 255 1720 255 1720 315 1704 c 6,68,-1
 407 1688 l 5,69,-1
 499 1684 l 6,70,71
 523 1684 523 1684 543 1684 c 4,72,73
 771 1672 771 1672 915 1552 c 4,74,75
 1015 1476 1015 1476 1027 1384 c 5,76,-1
 1315 1384 l 5,53,54
-25 1384 m 5,77,-1
 871 1384 l 5,78,-1
 1075 1384 l 5,79,-1
 1159 1376 l 5,80,-1
 1183 1344 l 5,81,-1
 1215 1272 l 5,82,-1
 1035 1272 l 5,83,-1
 1035 4 l 5,84,-1
 1015 16 l 6,85,86
 987 32 987 32 979 48 c 6,87,-1
 971 88 l 5,88,-1
 971 100 l 5,89,-1
 967 128 l 5,90,-1
 935 268 l 6,91,92
 871 480 871 480 723 632 c 4,93,94
 611 736 611 736 491 744 c 5,95,96
 535 692 535 692 547 640 c 4,97,98
 551 604 551 604 547 568 c 4,99,100
 531 436 531 436 399 404 c 5,101,-1
 327 396 l 6,102,103
 263 400 263 400 215 436 c 4,104,105
 183 464 183 464 163 496 c 4,106,107
 131 552 131 552 135 628 c 4,108,109
 143 760 143 760 243 840 c 4,110,111
 331 916 331 916 443 908 c 4,112,113
 639 900 639 900 831 636 c 5,114,-1
 819 656 l 6,115,116
 823 644 823 644 831 636 c 6,117,-1
 847 608 l 6,118,119
 895 540 895 540 907 500 c 5,120,-1
 911 500 l 5,121,-1
 911 1272 l 5,122,-1
 283 1272 l 5,123,-1
 111 1272 l 5,124,-1
 31 1276 l 5,125,-1
 7 1312 l 5,126,-1
 -25 1384 l 5,77,-1
EndSplineSet
EndChar

StartChar: p
Encoding: 112 112 83
Width: 1582
VWidth: 575
Flags: W
LayerCount: 2
Back
SplineSet
1296 1169 m 1,0,-1
 1184 1169 l 1,1,-1
 1184 71 l 2,2,3
 1184 -6 1184 -6 1161 -6 c 0,4,5
 1142 -6 1142 -6 1104 25 c 2,6,-1
 1047 72 l 2,7,8
 980 128 980 128 981 232 c 2,9,-1
 982 305 l 1,10,-1
 991 370 l 1,11,-1
 989 404 l 2,12,13
 987 432 987 432 981 454 c 1,14,-1
 912 439 l 1,15,-1
 864 436 l 1,16,-1
 821 436 l 2,17,18
 733 436 733 436 669 468 c 0,19,20
 643 481 643 481 553 552 c 0,21,22
 475 613 475 613 453 637 c 0,23,24
 404 688 404 688 389 749 c 1,25,-1
 389 1169 l 1,26,-1
 286 1169 l 1,27,-1
 286 1325 l 1,28,-1
 1296 1325 l 1,29,-1
 1296 1169 l 1,0,-1
1005 716 m 1,30,-1
 1005 1170 l 1,31,-1
 565 1170 l 1,32,-1
 565 689 l 1,33,34
 571 639 571 639 601 614 c 1,35,36
 635 592 635 592 685 592 c 1,37,-1
 746 598 l 1,38,-1
 807 614 l 2,39,40
 873 631 873 631 907 648 c 0,41,42
 960 674 960 674 1005 716 c 1,30,-1
EndSplineSet
Fore
SplineSet
1144 1508 m 5,0,-1
 1268 1392 l 5,1,-1
 1392 1380 l 5,2,-1
 1412 1348 l 5,3,-1
 1448 1272 l 5,4,-1
 1268 1272 l 5,5,-1
 1268 4 l 5,6,-1
 1188 60 l 5,7,-1
 1148 96 l 5,8,-1
 1144 160 l 5,9,-1
 1144 288 l 5,10,-1
 1144 624 l 5,11,-1
 1144 796 l 5,12,-1
 1112 860 l 5,13,-1
 1032 972 l 5,14,-1
 1028 972 l 5,15,-1
 928 872 l 5,16,-1
 704 652 l 5,17,-1
 620 568 l 5,18,-1
 576 536 l 5,19,-1
 516 548 l 5,20,-1
 396 580 l 5,21,-1
 436 632 l 5,22,-1
 468 672 l 6,23,24
 528 748 528 748 540 804 c 4,25,26
 548 852 548 852 524 892 c 4,27,28
 484 948 484 948 388 916 c 5,29,-1
 388 916 l 5,30,-1
 364 908 l 5,31,-1
 292 888 l 5,32,-1
 268 888 l 6,33,34
 200 896 200 896 180 952 c 6,35,-1
 176 1004 l 5,36,-1
 192 1076 l 6,37,38
 248 1268 248 1268 472 1320 c 6,39,-1
 524 1332 l 5,40,-1
 556 1336 l 6,41,42
 800 1352 800 1352 1012 1140 c 6,43,-1
 1016 1136 l 5,44,-1
 1036 1112 l 5,45,-1
 1052 1092 l 6,46,47
 1120 1008 1120 1008 1140 948 c 5,48,-1
 1144 948 l 5,49,-1
 1144 1508 l 5,0,-1
596 788 m 5,50,-1
 776 964 l 5,51,-1
 904 1092 l 5,52,-1
 796 1160 l 6,53,54
 716 1200 716 1200 632 1208 c 4,55,56
 492 1220 492 1220 428 1128 c 4,57,58
 412 1104 412 1104 404 1052 c 5,59,60
 536 1044 536 1044 584 872 c 4,61,62
 584 864 584 864 588 856 c 6,63,-1
 596 788 l 5,50,-1
EndSplineSet
EndChar

StartChar: q
Encoding: 113 113 84
Width: 0
Flags: W
LayerCount: 2
Fore
SplineSet
1501 3625 m 2,1,-1
 1501 3319 l 1,2,-1
 1492 3310 l 1,3,4
 1016 3310 1016 3310 727 3175 c 1,5,6
 499 3063 499 3063 394 2761 c 1,7,8
 365 2500 365 2500 349 2500 c 2,9,-1
 205 2500 l 1,10,-1
 196 2509 l 1,11,12
 196 2811 196 2811 394 3094 c 1,13,14
 851 3643 851 3643 1474 3643 c 0,15,0
 1501 3643 1501 3643 1501 3625 c 2,1,-1
EndSplineSet
Validated: 1
EndChar

StartChar: r
Encoding: 114 114 85
Width: 1582
Flags: W
LayerCount: 2
Back
SplineSet
955 1488 m 2,0,1
 1002 1432 1002 1432 1002 1398 c 0,2,3
 1002 1381 1002 1381 985 1378 c 0,4,5
 952 1378 952 1378 910 1432 c 2,6,-1
 769 1612 l 2,7,8
 739 1650 739 1650 683 1683 c 0,9,10
 652 1697 652 1697 623 1697 c 1,11,-1
 580 1691 l 1,12,-1
 536 1684 l 1,13,-1
 508 1679 l 1,14,-1
 479 1677 l 2,15,16
 432 1674 432 1674 358 1776 c 2,17,-1
 324 1823 l 2,18,19
 297 1860 297 1860 297 1876 c 0,20,21
 296 1906 296 1906 368 1906 c 0,22,23
 606 1906 606 1906 789 1687 c 2,24,-1
 955 1488 l 2,0,1
1286 1169 m 1,25,-1
 1018 1169 l 1,26,27
 1018 1139 1018 1139 1020 1108 c 0,28,29
 1022 1086 1022 1086 1026 1028 c 2,30,-1
 1035 889 l 2,31,32
 1037 858 1037 858 1037 839 c 0,33,34
 1037 646 1037 646 941 507 c 0,35,36
 902 450 902 450 902 402 c 0,37,38
 902 363 902 363 927 336 c 0,39,40
 1002 253 1002 253 1074 204 c 2,41,-1
 1233 95 l 2,42,43
 1286 59 1286 59 1286 -1 c 0,44,45
 1286 -50 1286 -50 1245 -50 c 0,46,47
 1219 -50 1219 -50 1189 -25 c 2,48,-1
 1012 122 l 1,49,-1
 839 274 l 2,50,51
 768 336 768 336 677 448 c 0,52,53
 666 461 666 461 631 510 c 0,54,55
 594 556 594 556 532 656 c 0,56,57
 524 673 524 673 519 689 c 2,58,-1
 510 747 l 1,59,60
 510 859 510 859 596 859 c 0,61,62
 624 859 624 859 681 833.5 c 128,-1,63
 738 808 738 808 767 808 c 0,64,65
 791 808 791 808 806 816 c 1,66,67
 849 879 849 879 849 994 c 0,68,69
 849 1061 849 1061 839 1115 c 0,70,71
 837 1144 837 1144 829 1169 c 1,72,-1
 451 1169 l 1,73,-1
 451 1325 l 1,74,-1
 1286 1325 l 1,75,-1
 1286 1169 l 1,25,-1
EndSplineSet
Fore
SplineSet
490 1384 m 5,0,-1
 1290 1384 l 5,1,-1
 1482 1384 l 5,2,-1
 1558 1376 l 5,3,-1
 1582 1344 l 5,4,-1
 1614 1272 l 5,5,-1
 1434 1272 l 5,6,-1
 1434 4 l 5,7,-1
 1418 12 l 6,8,9
 1390 28 1390 28 1378 48 c 6,10,-1
 1374 64 l 5,11,-1
 1370 80 l 5,12,-1
 1366 96 l 5,13,-1
 1342 176 l 6,14,15
 1314 260 1314 260 1226 352 c 4,16,17
 1090 492 1090 492 898 584 c 5,18,-1
 762 632 l 5,19,-1
 734 640 l 5,20,-1
 730 640 l 5,21,-1
 726 640 l 5,22,-1
 722 644 l 5,23,-1
 682 656 l 5,24,-1
 658 688 l 5,25,-1
 642 708 l 5,26,-1
 622 740 l 5,27,-1
 582 808 l 5,28,29
 842 976 842 976 1014 1060 c 6,30,-1
 1202 1136 l 5,31,-1
 1234 1148 l 5,32,-1
 1250 1152 l 5,33,-1
 1298 1172 l 6,34,35
 1314 1184 1314 1184 1314 1228 c 6,36,-1
 1314 1232 l 5,37,-1
 1314 1236 l 5,38,-1
 1314 1240 l 5,39,-1
 1310 1248 l 5,40,-1
 1310 1272 l 5,41,-1
 766 1272 l 5,42,-1
 614 1272 l 5,43,-1
 546 1276 l 5,44,-1
 522 1312 l 5,45,-1
 490 1384 l 5,0,-1
802 764 m 5,46,47
 866 752 866 752 958 688 c 4,48,49
 1046 636 1046 636 1134 552 c 260,50,51
 1222 468 1222 468 1310 352 c 5,52,-1
 1310 1016 l 5,53,54
 1114 948 1114 948 946 852 c 6,55,-1
 898 828 l 5,56,-1
 842 796 l 5,57,-1
 802 764 l 5,46,47
810 392 m 6,58,-1
 834 396 l 5,59,-1
 862 392 l 6,60,61
 942 376 942 376 950 280 c 4,62,63
 950 188 950 188 858 168 c 6,64,-1
 834 164 l 5,65,-1
 806 168 l 6,66,67
 726 184 726 184 718 280 c 4,68,69
 718 372 718 372 810 392 c 6,58,-1
-30 1384 m 5,70,-1
 410 1384 l 5,71,-1
 526 1384 l 5,72,-1
 578 1376 l 5,73,-1
 602 1344 l 5,74,-1
 634 1272 l 5,75,-1
 606 1272 l 5,76,-1
 578 1272 l 5,77,-1
 522 1268 l 5,78,-1
 446 1228 l 6,79,80
 366 1176 366 1176 298 1096 c 4,81,82
 174 940 174 940 154 728 c 5,83,-1
 158 584 l 6,84,85
 166 380 166 380 254 248 c 5,86,87
 278 288 278 288 310 316 c 6,88,-1
 366 340 l 5,89,90
 486 372 486 372 554 268 c 4,91,92
 598 200 598 200 574 124 c 6,93,-1
 566 104 l 6,94,95
 554 80 554 80 538 64 c 4,96,97
 478 -4 478 -4 378 8 c 4,98,99
 290 16 290 16 222 76 c 4,100,101
 162 132 162 132 122 240 c 6,102,-1
 106 292 l 6,103,104
 74 420 74 420 66 576 c 4,105,106
 54 820 54 820 110 996 c 4,107,108
 150 1112 150 1112 254 1272 c 5,109,-1
 94 1272 l 5,110,-1
 26 1280 l 5,111,-1
 2 1312 l 5,112,-1
 -30 1384 l 5,70,-1
EndSplineSet
EndChar

StartChar: s
Encoding: 115 115 86
Width: 1582
VWidth: 575
Flags: W
LayerCount: 2
Back
SplineSet
1428 1170 m 1,0,-1
 1321 1170 l 1,1,-1
 1322 54 l 2,2,3
 1322 37 1322 37 1318 22 c 1,4,5
 1318 6 1318 6 1305 4 c 0,6,7
 1284 4 1284 4 1242 52 c 1,8,9
 1205 85 1205 85 1193 99 c 0,10,11
 1140 157 1140 157 1141 257 c 2,12,-1
 1144 582 l 1,13,14
 1066 559 1066 559 1009 561 c 2,15,-1
 930 564 l 2,16,17
 837 568 837 568 796 586 c 0,18,19
 774 596 774 596 716 651 c 0,20,21
 695 671 695 671 673 680 c 1,22,-1
 623 688 l 1,23,24
 610 645 610 645 589 609 c 2,25,-1
 523 494 l 1,26,-1
 502 454 l 1,27,-1
 496 420 l 1,28,29
 496 370 496 370 599 272 c 1,30,-1
 716 181 l 2,31,32
 821 99 821 99 830 24 c 0,33,34
 830 -3 830 -3 800 -3 c 0,35,36
 756 -3 756 -3 713 36 c 0,37,38
 597 140 597 140 530 222 c 2,39,-1
 375 411 l 2,40,41
 205 618 205 618 205 756 c 0,42,43
 205 866 205 866 276 866 c 1,44,45
 316 861 316 861 348 841 c 1,46,47
 386 824 386 824 409 816 c 1,48,49
 441 816 441 816 468 864 c 0,50,51
 482 897 482 897 485 920 c 2,52,-1
 485 1170 l 1,53,-1
 154 1170 l 1,54,-1
 154 1325 l 1,55,-1
 1428 1325 l 1,56,-1
 1428 1170 l 1,0,-1
1144 1170 m 1,57,-1
 652 1170 l 1,58,-1
 652 756 l 1,59,60
 675 733 675 733 742 731 c 2,61,-1
 883 727 l 2,62,63
 1049 722 1049 722 1144 781 c 1,64,-1
 1144 1170 l 1,57,-1
EndSplineSet
Fore
SplineSet
85 1384 m 1,0,-1
 1105 1384 l 1,1,-1
 1333 1384 l 1,2,-1
 1421 1376 l 1,3,-1
 1445 1344 l 1,4,-1
 1477 1272 l 1,5,-1
 1297 1272 l 1,6,-1
 1297 4 l 1,7,-1
 1257 32 l 1,8,-1
 1217 60 l 1,9,-1
 1205 72 l 1,10,-1
 1201 72 l 1,11,-1
 1177 96 l 1,12,-1
 1173 120 l 1,13,-1
 1173 136 l 1,14,-1
 1173 148 l 1,15,-1
 1173 240 l 1,16,-1
 1173 568 l 1,17,-1
 1173 656 l 1,18,-1
 1169 712 l 1,19,20
 1149 764 1149 764 1113 792 c 2,21,-1
 1105 800 l 1,22,-1
 1097 804 l 1,23,-1
 1053 828 l 1,24,-1
 1009 836 l 1,25,-1
 965 828 l 2,26,27
 933 824 933 824 893 780 c 0,28,29
 833 720 833 720 753 612 c 2,30,-1
 741 596 l 1,31,-1
 657 492 l 1,32,-1
 633 464 l 2,33,34
 573 404 573 404 525 404 c 2,35,-1
 497 412 l 1,36,-1
 469 432 l 1,37,-1
 457 440 l 1,38,-1
 337 556 l 1,39,-1
 301 592 l 2,40,41
 253 644 253 644 233 692 c 1,42,-1
 293 720 l 1,43,44
 333 668 333 668 393 624 c 2,45,-1
 409 612 l 1,46,-1
 449 592 l 1,47,-1
 497 608 l 2,48,49
 533 624 533 624 581 672 c 2,50,-1
 673 768 l 1,51,-1
 685 784 l 1,52,-1
 709 820 l 1,53,-1
 713 840 l 1,54,-1
 709 864 l 1,55,-1
 681 960 l 1,56,57
 613 1096 613 1096 473 1136 c 1,58,-1
 409 1144 l 1,59,-1
 321 1160 l 2,60,61
 265 1180 265 1180 229 1220 c 2,62,-1
 217 1240 l 1,63,-1
 201 1260 l 1,64,-1
 173 1272 l 1,65,-1
 169 1272 l 1,66,-1
 153 1276 l 1,67,-1
 141 1280 l 1,68,-1
 121 1304 l 1,69,-1
 117 1312 l 1,70,-1
 101 1348 l 1,71,-1
 85 1384 l 1,0,-1
617 1272 m 1,72,73
 709 1152 709 1152 753 1012 c 2,74,-1
 761 976 l 1,75,-1
 769 924 l 1,76,-1
 777 880 l 1,77,-1
 817 928 l 1,78,-1
 821 932 l 1,79,-1
 837 948 l 2,80,81
 941 1044 941 1044 1029 1016 c 2,82,-1
 1069 996 l 2,83,84
 1093 980 1093 980 1121 948 c 2,85,-1
 1169 868 l 1,86,-1
 1173 868 l 1,87,-1
 1173 1272 l 1,88,-1
 617 1272 l 1,72,73
EndSplineSet
EndChar

StartChar: u
Encoding: 117 117 88
Width: 2
Flags: W
LayerCount: 2
Fore
SplineSet
-643 2303 m 1,0,-1
 -707 2225 l 1,1,-1
 -759 2167 l 1,2,3
 -781 2155 -781 2155 -793 2155 c 0,4,5
 -809 2155 -809 2155 -877 2235 c 2,6,-1
 -940 2307 l 1,7,-1
 -940 2344 l 1,8,-1
 -865 2446 l 2,9,10
 -837 2484 -837 2484 -809 2500 c 1,11,12
 -781 2500 -781 2500 -643 2344 c 1,13,-1
 -641 2323 l 1,14,-1
 -643 2303 l 1,0,-1
EndSplineSet
Validated: 1
EndChar

StartChar: w
Encoding: 119 119 90
Width: 0
Flags: W
LayerCount: 2
Fore
SplineSet
-43 3643 m 1,0,-1
 1550 3643 l 1,1,-1
 1568 3625 l 1,2,-1
 1568 3328 l 1,3,-1
 1550 3310 l 1,4,-1
 -43 3310 l 1,5,-1
 -61 3328 l 1,6,-1
 -61 3625 l 1,7,-1
 -43 3643 l 1,0,-1
EndSplineSet
Validated: 1
EndChar

StartChar: x
Encoding: 120 120 91
Width: 1582
Flags: W
LayerCount: 2
Fore
SplineSet
341 892 m 1,0,-1
 425 972 l 1,1,-1
 792 605 l 1,2,-1
 1158 972 l 1,3,-1
 1242 892 l 1,4,-1
 871 523 l 1,5,-1
 1242 155 l 1,6,-1
 1158 75 l 1,7,-1
 792 441 l 1,8,-1
 425 75 l 1,9,-1
 341 155 l 1,10,-1
 710 523 l 1,11,-1
 341 892 l 1,0,-1
EndSplineSet
Validated: 1
EndChar

StartChar: bar
Encoding: 124 124 95
Width: 1582
Flags: W
LayerCount: 2
Fore
SplineSet
879 -3 m 1,0,-1
 703 184 l 1,1,-1
 703 1397 l 1,2,-1
 879 1231 l 1,3,-1
 879 -3 l 1,0,-1
EndSplineSet
Validated: 1
EndChar

StartChar: asciitilde
Encoding: 126 126 97
Width: 8
Flags: W
LayerCount: 2
Fore
SplineSet
12022 -2000 m 1,0,-1
 12258 -2000 l 1,1,2
 11773 -2273 11773 -2273 11123 -2456 c 0,3,4
 10198 -2717 10198 -2717 8941.5 -2858.5 c 128,-1,5
 7685 -3000 7685 -3000 6333 -3000 c 0,6,7
 4356 -3000 4356 -3000 2727 -2722.5 c 128,-1,8
 1098 -2445 1098 -2445 396 -2000 c 1,9,-1
 664 -2000 l 1,10,11
 1098 -2222 1098 -2222 1850.5 -2365.5 c 128,-1,12
 2603 -2509 2603 -2509 3757 -2579.5 c 128,-1,13
 4911 -2650 4911 -2650 6168 -2650 c 0,14,15
 7532 -2650 7532 -2650 8648 -2590 c 0,16,17
 9528 -2543 9528 -2543 10060.5 -2476 c 128,-1,18
 10593 -2409 10593 -2409 11084.5 -2295.5 c 128,-1,19
 11576 -2182 11576 -2182 12022 -2000 c 1,0,-1
EndSplineSet
Validated: 1
EndChar

StartChar: quoteright
Encoding: 8217 8217 182
Width: 1582
VWidth: 575
Flags: W
LayerCount: 2
Fore
SplineSet
230 1384 m 1,0,-1
 1030 1384 l 1,1,-1
 1222 1384 l 1,2,-1
 1298 1376 l 1,3,-1
 1322 1344 l 1,4,-1
 1354 1272 l 1,5,-1
 1174 1272 l 1,6,-1
 1174 4 l 1,7,-1
 1158 12 l 2,8,9
 1130 28 1130 28 1118 48 c 2,10,-1
 1114 64 l 1,11,-1
 1110 80 l 1,12,-1
 1106 96 l 1,13,-1
 1082 176 l 2,14,15
 1054 260 1054 260 966 352 c 0,16,17
 830 492 830 492 638 584 c 1,18,-1
 502 632 l 1,19,-1
 474 640 l 1,20,-1
 470 640 l 1,21,-1
 466 640 l 1,22,-1
 462 644 l 1,23,-1
 422 656 l 1,24,-1
 398 688 l 1,25,-1
 382 708 l 1,26,-1
 362 740 l 1,27,-1
 322 808 l 1,28,29
 582 976 582 976 754 1060 c 2,30,-1
 942 1136 l 1,31,-1
 974 1148 l 1,32,-1
 990 1152 l 1,33,-1
 1038 1172 l 2,34,35
 1054 1184 1054 1184 1054 1228 c 2,36,-1
 1054 1232 l 1,37,-1
 1054 1236 l 1,38,-1
 1054 1240 l 1,39,-1
 1050 1248 l 1,40,-1
 1050 1272 l 1,41,-1
 506 1272 l 1,42,-1
 354 1272 l 1,43,-1
 286 1276 l 1,44,-1
 262 1312 l 1,45,-1
 230 1384 l 1,0,-1
542 764 m 1,46,47
 606 752 606 752 698 688 c 0,48,49
 786 636 786 636 874 552 c 256,50,51
 962 468 962 468 1050 352 c 1,52,-1
 1050 1016 l 1,53,54
 854 948 854 948 686 852 c 2,55,-1
 638 828 l 1,56,-1
 582 796 l 1,57,-1
 542 764 l 1,46,47
550 392 m 2,58,-1
 574 396 l 1,59,-1
 602 392 l 2,60,61
 682 376 682 376 690 280 c 0,62,63
 690 188 690 188 598 168 c 2,64,-1
 574 164 l 1,65,-1
 546 168 l 2,66,67
 466 184 466 184 458 280 c 0,68,69
 458 372 458 372 550 392 c 2,58,-1
EndSplineSet
EndChar

